<svg xmlns="http://www.w3.org/2000/svg"  viewBox="0 0 200 200" width="100px" height="100px"><path fill="#70bfff" d="M161,28.4H39c-4.4,0-8,3.6-8,8v96c0,4.4,3.6,8,8,8h24.3v38l38-38H161c4.4,0,8-3.6,8-8v-96	C169,32,165.4,28.4,161,28.4z"/><path fill="none" stroke="#40396e" stroke-linecap="round" stroke-linejoin="round" stroke-miterlimit="20" stroke-width="6" d="M161,28.4H39c-4.4,0-8,3.6-8,8v96c0,4.4,3.6,8,8,8h24.3v38l38-38H161c4.4,0,8-3.6,8-8v-96	C169,32,165.4,28.4,161,28.4z"/><path d="M67.3,195.4c-1.7,0-3.4-0.3-5-1c-4.9-2-8-6.7-8-12v-25H43c-11.6,0-21-9.4-21-21v-96c0-11.6,9.4-21,21-21h122 c11.6,0,21,9.4,21,21v96c0,11.6-9.4,21-21,21h-54.4l-34.2,34.2C74,194.1,70.7,195.4,67.3,195.4z" opacity=".35"/><path fill="#f2f2f2" d="M63.3,191.4c-1.7,0-3.4-0.3-5-1c-4.9-2-8-6.7-8-12v-25H39c-11.6,0-21-9.4-21-21v-96c0-11.6,9.4-21,21-21h122 c11.6,0,21,9.4,21,21v96c0,11.6-9.4,21-21,21h-54.4l-34.2,34.2C70,190.1,66.7,191.4,63.3,191.4z"/><path fill="#f2f2f2" d="M100.1,62.1c-2.7,0-4.8-0.6-6.3-1.9c-1.5-1.3-2.2-3.1-2.2-5.4c0-2.4,0.7-4.2,2.2-5.5c1.5-1.3,3.6-1.9,6.3-1.9 c5.6,0,8.4,2.5,8.4,7.4C108.4,59.7,105.6,62.1,100.1,62.1z M100.1,119.4c-2.4,0-4.2-0.7-5.5-2.1c-1.3-1.4-1.9-3.4-1.9-5.9V78.1 c0-5.4,2.5-8.1,7.4-8.1c2.3,0,4.1,0.7,5.4,2.1c1.3,1.4,1.9,3.4,1.9,6v33.3c0,2.5-0.6,4.5-1.8,5.9 C104.3,118.7,102.4,119.4,100.1,119.4z"/><path fill="#70bfff" d="M161,28.4H39c-4.4,0-8,3.6-8,8v96c0,4.4,3.6,8,8,8h24.3v38l38-38H161c4.4,0,8-3.6,8-8v-96 C169,32,165.4,28.4,161,28.4z"/><path fill="#40396e" d="M63.3,181.4c-0.4,0-0.8-0.1-1.1-0.2c-1.1-0.5-1.9-1.6-1.9-2.8v-35H39c-6.1,0-11-4.9-11-11v-96 c0-6.1,4.9-11,11-11h122c6.1,0,11,4.9,11,11v96c0,6.1-4.9,11-11,11h-58.5l-37.1,37.1C64.8,181.1,64,181.4,63.3,181.4z M39,31.4 c-2.8,0-5,2.2-5,5v96c0,2.8,2.2,5,5,5h24.3c1.7,0,3,1.3,3,3v30.8l32.9-32.9c0.6-0.6,1.3-0.9,2.1-0.9H161c2.8,0,5-2.2,5-5v-96 c0-2.8-2.2-5-5-5H39z"/><path fill="#f2f2f2" d="M100.1,62.1c-2.7,0-4.8-0.6-6.3-1.9c-1.5-1.3-2.2-3.1-2.2-5.4c0-2.4,0.7-4.2,2.2-5.5c1.5-1.3,3.6-1.9,6.3-1.9 c5.6,0,8.4,2.5,8.4,7.4C108.4,59.7,105.6,62.1,100.1,62.1z M100.1,119.4c-2.4,0-4.2-0.7-5.5-2.1c-1.3-1.4-1.9-3.4-1.9-5.9V78.1 c0-5.4,2.5-8.1,7.4-8.1c2.3,0,4.1,0.7,5.4,2.1c1.3,1.4,1.9,3.4,1.9,6v33.3c0,2.5-0.6,4.5-1.8,5.9 C104.3,118.7,102.4,119.4,100.1,119.4z"/></svg>