<svg xmlns="http://www.w3.org/2000/svg" width="430" height="430" style="width:100%;height:100%;transform:translate3d(0,0,0);content-visibility:visible" viewBox="0 0 430 430"><defs><clipPath id="g"><path d="M0 0h430v430H0z"/></clipPath><clipPath id="n"><path d="M0 0h430v430H0z"/></clipPath><clipPath id="o"><path d="M0 0h430v430H0z"/></clipPath><clipPath id="l"><path d="M0 0h430v430H0z"/></clipPath><clipPath id="j"><path d="M0 0h430v430H0z"/></clipPath><clipPath id="h"><path d="M0 0h430v430H0z"/></clipPath><mask id="q" mask-type="alpha"><use xmlns:ns1="http://www.w3.org/1999/xlink" ns1:href="#a"/></mask><mask id="p" mask-type="alpha"><g filter="url(#b)"><path fill="#fff" d="M0 0h430v430H0z" opacity="0"/><use xmlns:ns2="http://www.w3.org/1999/xlink" ns2:href="#c"/></g></mask><mask id="m" mask-type="alpha"><use xmlns:ns3="http://www.w3.org/1999/xlink" ns3:href="#d"/></mask><mask id="k" mask-type="alpha"><use xmlns:ns4="http://www.w3.org/1999/xlink" ns4:href="#e"/></mask><mask id="i" mask-type="alpha"><use xmlns:ns5="http://www.w3.org/1999/xlink" ns5:href="#f"/></mask><path id="d" fill="#3A3347" d="M215 108.5c58.819 0 106.5 47.681 106.5 106.5S273.819 321.5 215 321.5 108.5 273.819 108.5 215 156.181 108.5 215 108.5zm150.643 136.901-8.759-5.057A144.987 144.987 0 0 0 359.107 215c0-8.647-.763-17.116-2.223-25.344l8.759-5.057c10.709-6.183 14.378-19.877 8.195-30.586l-26.603-46.077c-6.183-10.708-19.876-14.377-30.585-8.195l-8.786 5.072a143.948 143.948 0 0 0-43.87-25.372V69.34c0-12.367-10.025-22.39-22.39-22.39h-53.207c-12.366 0-22.39 10.023-22.39 22.39v10.1c-16.166 5.844-30.983 14.5-43.87 25.372l-8.787-5.072c-10.709-6.182-24.402-2.513-30.585 8.195l-26.603 46.077c-6.183 10.71-2.514 24.403 8.195 30.586l8.759 5.057A144.987 144.987 0 0 0 70.893 215c0 8.647.763 17.116 2.223 25.344l-8.759 5.057c-10.709 6.183-14.378 19.877-8.195 30.586l26.603 46.077c6.183 10.71 19.876 14.378 30.585 8.195l8.786-5.072a143.948 143.948 0 0 0 43.87 25.372v10.101c0 12.367 10.025 22.39 22.39 22.39h53.207c12.366 0 22.39-10.023 22.39-22.39v-10.1c16.166-5.844 30.983-14.5 43.87-25.372l8.787 5.072c10.709 6.183 24.402 2.514 30.585-8.195l26.603-46.077c6.183-10.71 2.514-24.403-8.195-30.586z" style="display:block"/><path id="f" style="display:none"/><path id="c" style="display:none"/><path id="a" style="display:none"/><filter id="b" width="100%" height="100%" x="0%" y="0%" filterUnits="objectBoundingBox"><feComponentTransfer in="SourceGraphic"><feFuncA tableValues="1.0 0.0" type="table"/></feComponentTransfer></filter><g id="e" style="display:none"><path/><path fill-opacity="0"/><path fill-opacity="0" stroke-linecap="round" stroke-linejoin="round"/></g></defs><g clip-path="url(#g)"><g clip-path="url(#h)" style="display:none"><path class="secondary" style="display:none"/><g mask="url(#i)" style="display:none"><path class="secondary"/><path class="secondary" style="mix-blend-mode:multiply"/></g><g fill="none" style="display:none"><path class="primary"/><path class="primary"/><path class="primary"/><path class="primary"/></g><path fill="none" class="primary" style="display:none"/><path fill="none" class="primary" style="display:none"/></g><g clip-path="url(#j)" style="display:none"><path class="secondary" style="display:none"/><g mask="url(#k)" style="display:none"><path class="secondary"/><path class="secondary" style="mix-blend-mode:multiply"/></g><g fill="none" style="display:none"><path class="primary"/><path class="primary"/><path class="primary"/><path class="primary"/></g><path fill="none" class="primary" style="display:none"/><path fill="none" class="primary" style="display:none"/></g><g clip-path="url(#l)" style="display:block"><path fill="#3A3347" d="M215 108.5c58.819 0 106.5 47.681 106.5 106.5S273.819 321.5 215 321.5 108.5 273.819 108.5 215 156.181 108.5 215 108.5zm150.643 136.901-8.759-5.057A144.987 144.987 0 0 0 359.107 215c0-8.647-.763-17.116-2.223-25.344l8.759-5.057c10.709-6.183 14.378-19.877 8.195-30.586l-26.603-46.077c-6.183-10.708-19.876-14.377-30.585-8.195l-8.786 5.072a143.948 143.948 0 0 0-43.87-25.372V69.34c0-12.367-10.025-22.39-22.39-22.39h-53.207c-12.366 0-22.39 10.023-22.39 22.39v10.1c-16.166 5.844-30.983 14.5-43.87 25.372l-8.787-5.072c-10.709-6.182-24.402-2.513-30.585 8.195l-26.603 46.077c-6.183 10.71-2.514 24.403 8.195 30.586l8.759 5.057A144.987 144.987 0 0 0 70.893 215c0 8.647.763 17.116 2.223 25.344l-8.759 5.057c-10.709 6.183-14.378 19.877-8.195 30.586l26.603 46.077c6.183 10.71 19.876 14.378 30.585 8.195l8.786-5.072a143.948 143.948 0 0 0 43.87 25.372v10.101c0 12.367 10.025 22.39 22.39 22.39h53.207c12.366 0 22.39-10.023 22.39-22.39v-10.1c16.166-5.844 30.983-14.5 43.87-25.372l8.787 5.072c10.709 6.183 24.402 2.514 30.585-8.195l26.603-46.077c6.183-10.71 2.514-24.403-8.195-30.586z" class="secondary" style="display:block"/><g fill="#3A3347" mask="url(#m)" style="display:block"><path d="m215 25.5-.25 422.5-239-.25.25-422.5 239 .25z" class="secondary"/><path fill-opacity=".5" d="m51.75-99.75-.25 422.5-239-.25.25-422.5 239 .25z" class="secondary" style="mix-blend-mode:multiply" transform="translate(163.25 125.25)"/></g><path fill="none" stroke="#121331" stroke-linecap="round" stroke-linejoin="round" stroke-width="7" d="M214.969 241.686v-53.371l.002-.001h19.973c9.461 0 17.131 7.67 17.131 17.131 0 0 0 0 0 0 0 9.461-7.67 17.131-17.131 17.131h-19.973m60.291 19.111v-53.276m-83.128 53.276-13.658-53.374h-16.155l-15.333 53.374m3.88-12.535h37.78" class="primary" style="display:block"/><path fill="none" stroke="#121331" stroke-linecap="round" stroke-linejoin="round" stroke-width="7" d="M0-106.746c58.954 0 106.746 47.792 106.746 106.746 0 58.954-47.792 106.746-106.746 106.746-58.954 0-106.746-47.792-106.746-106.746 0-58.954 47.792-106.746 106.746-106.746z" class="primary" style="display:block" transform="translate(215 215)"/><path fill="none" stroke="#121331" stroke-linecap="round" stroke-linejoin="round" stroke-width="7" d="m167.381 33.779-9.732-5.619A161.096 161.096 0 0 0 160.119 0c0-9.608-.848-19.018-2.47-28.16l9.732-5.619c11.899-6.87 15.976-22.085 9.106-33.984l-29.559-51.197c-6.87-11.898-22.085-15.975-33.984-9.106l-9.762 5.636c-14.32-12.081-30.783-21.698-48.745-28.191v-11.224c0-13.74-11.138-24.878-24.878-24.878h-59.118c-13.74 0-24.878 11.138-24.878 24.878v11.224c-17.962 6.493-34.425 16.11-48.745 28.191l-9.762-5.636c-11.899-6.869-27.114-2.792-33.984 9.106l-29.559 51.197c-6.87 11.899-2.793 27.114 9.106 33.984l9.732 5.619A161.096 161.096 0 0 0-160.119 0c0 9.608.848 19.018 2.47 28.16l-9.732 5.619c-11.899 6.87-15.976 22.085-9.106 33.984l29.559 51.197c6.87 11.899 22.085 15.976 33.984 9.106l9.762-5.636c14.32 12.081 30.783 21.698 48.745 28.191v11.224c0 13.74 11.138 24.878 24.878 24.878h59.118c13.74 0 24.878-11.138 24.878-24.878v-11.224c17.962-6.493 34.425-16.11 48.745-28.191l9.762 5.636c11.899 6.87 27.114 2.793 33.984-9.106l29.559-51.197c6.87-11.899 2.793-27.114-9.106-33.984z" class="primary" style="display:block" transform="matrix(.9 0 0 .9 215 215)"/></g><g clip-path="url(#n)" style="display:none"><g clip-path="url(#o)" mask="url(#p)" style="display:none"><path class="secondary" style="display:none"/><g mask="url(#q)" style="display:none"><path class="secondary"/><path class="secondary" style="mix-blend-mode:multiply"/></g></g><g fill="none" style="display:none"><path class="primary"/><path class="primary"/><path class="primary"/><path class="primary"/></g><path fill="none" class="primary" style="display:none"/><path fill="none" class="primary" style="display:none"/></g></g></svg>