<svg xmlns:dc="http://purl.org/dc/elements/1.1/" xmlns:cc="http://creativecommons.org/ns#" xmlns:rdf="http://www.w3.org/1999/02/22-rdf-syntax-ns#" xmlns:svg="http://www.w3.org/2000/svg" xmlns="http://www.w3.org/2000/svg" xmlns:sodipodi="http://sodipodi.sourceforge.net/DTD/sodipodi-0.dtd" xmlns:inkscape="http://www.inkscape.org/namespaces/inkscape" version="1.1" x="0px" y="0px" viewBox="0 0 48 60"><g transform="translate(0,-1004.3622)"><path style="text-indent:0;text-transform:none;direction:ltr;block-progression:tb;baseline-shift:baseline;color:#000000;enable-background:accumulate;" d="m 36.821145,1014.9794 -23.334674,-0.7069 c -0.559676,-0.012 -1.029768,0.454 -1.038823,0.9724 -0.0093,0.5267 0.44604,1.0213 0.972373,1.0387 l 21.014435,0.6407 -23.820797,23.8208 c -0.390563,0.3906 -0.390542,1.0237 1.8e-5,1.4142 0.390509,0.3906 1.023668,0.3905 1.414206,0 l 23.820795,-23.8208 0.640694,21.0145 c 0.01727,0.5265 0.512076,0.9899 1.038789,0.9724 0.526514,-0.017 0.970475,-0.4488 0.972348,-1.0389 l -0.706944,-23.3346 c -0.06204,-0.5998 -0.538314,-0.9348 -0.97242,-0.9725 z" fill="#000000" fill-opacity="1" fill-rule="nonzero" stroke="none" marker="none" visibility="visible" display="inline" overflow="visible"/></g><text x="0" y="63" fill="#000000" font-size="5px" font-weight="bold" font-family="'Helvetica Neue', Helvetica, Arial-Unicode, Arial, Sans-serif">Created by unlimicon</text><text x="0" y="68" fill="#000000" font-size="5px" font-weight="bold" font-family="'Helvetica Neue', Helvetica, Arial-Unicode, Arial, Sans-serif">from the Noun Project</text></svg>