<svg xmlns="http://www.w3.org/2000/svg" width="430" height="430" style="width:100%;height:100%;transform:translate3d(0,0,0);content-visibility:visible" viewBox="0 0 430 430"><defs><clipPath id="a"><path d="M0 0h430v430H0z"/></clipPath><clipPath id="b"><path d="M0 0h430v430H0z"/></clipPath></defs><g clip-path="url(#a)"><g fill="none" stroke-linecap="round" stroke-linejoin="round" stroke-width="12.04" clip-path="url(#b)" style="display:block"><path stroke="#08A88A" d="M259.651 267.178c-12.007 10.284-27.601 16.49-44.636 16.49-37.92 0-68.668-30.748-68.668-68.668s30.748-68.668 68.668-68.668c17.035 0 32.629 6.206 44.636 16.49" class="secondary"/><path stroke="#121331" d="M348.433 215c0 73.693-59.74 133.433-133.433 133.433-73.693 0-133.433-59.74-133.433-133.433 0-73.693 59.74-133.433 133.433-133.433 73.693 0 133.433 59.74 133.433 133.433z" class="primary"/></g></g></svg>