<svg xmlns="http://www.w3.org/2000/svg" width="430" height="430" style="width:100%;height:100%;transform:translate3d(0,0,0);content-visibility:visible" viewBox="0 0 430 430"><defs><mask id="K" mask-type="alpha"><use xmlns:ns1="http://www.w3.org/1999/xlink" ns1:href="#a"/></mask><mask id="J" mask-type="alpha"><use xmlns:ns2="http://www.w3.org/1999/xlink" ns2:href="#b"/></mask><mask id="G" mask-type="alpha"><use xmlns:ns3="http://www.w3.org/1999/xlink" ns3:href="#c"/></mask><mask id="F" mask-type="alpha"><use xmlns:ns4="http://www.w3.org/1999/xlink" ns4:href="#d"/></mask><mask id="C" mask-type="alpha"><use xmlns:ns5="http://www.w3.org/1999/xlink" ns5:href="#e"/></mask><mask id="B" mask-type="alpha"><g filter="url(#f)"><path fill="#fff" d="M0 0h430v430H0z" opacity="0"/><use xmlns:ns6="http://www.w3.org/1999/xlink" ns6:href="#g"/></g></mask><mask id="z" mask-type="alpha"><use xmlns:ns7="http://www.w3.org/1999/xlink" ns7:href="#h"/></mask><mask id="y" mask-type="alpha"><use xmlns:ns8="http://www.w3.org/1999/xlink" ns8:href="#i"/></mask><mask id="t" mask-type="alpha"><g filter="url(#j)"><path fill="#fff" d="M0 0h430v430H0z" opacity="0"/><use xmlns:ns9="http://www.w3.org/1999/xlink" ns9:href="#k"/></g></mask><mask id="v" mask-type="alpha"><use xmlns:ns10="http://www.w3.org/1999/xlink" ns10:href="#l"/></mask><mask id="s" mask-type="alpha"><use xmlns:ns11="http://www.w3.org/1999/xlink" ns11:href="#m"/></mask><mask id="q" mask-type="alpha"><use xmlns:ns12="http://www.w3.org/1999/xlink" ns12:href="#n"/></mask><clipPath id="o"><path d="M0 0h430v430H0z"/></clipPath><clipPath id="H"><path d="M0 0h430v430H0z"/></clipPath><clipPath id="I"><path d="M0 0h430v430H0z"/></clipPath><clipPath id="D"><path d="M0 0h430v430H0z"/></clipPath><clipPath id="E"><path d="M0 0h430v430H0z"/></clipPath><clipPath id="w"><path d="M0 0h430v430H0z"/></clipPath><clipPath id="A"><path d="M0 0h430v430H0z"/></clipPath><clipPath id="x"><path d="M0 0h430v430H0z"/></clipPath><clipPath id="p"><path d="M0 0h430v430H0z"/></clipPath><clipPath id="u"><path d="M0 0h430v430H0z"/></clipPath><clipPath id="r"><path d="M0 0h430v430H0z"/></clipPath><path id="a" style="display:none"/><path id="c" style="display:none"/><path id="g" fill="red" d="M26.69-186.57h.06v106.81h106.68v-.06L26.69-186.57z" style="display:block" transform="translate(214 214.76)"/><path id="e" fill="#08A88A" d="M49.774-58.223a3 3 0 0 0-4.243 0L-16.483 3.79l-29.048-29.049a3 3 0 0 0-4.243 0L-73.815-1.217a3 3 0 0 0 0 4.243l55.225 55.198a3.001 3.001 0 0 0 4.243-.001l88.162-88.162a3 3 0 0 0 0-4.243L49.774-58.223z" style="display:block" transform="translate(216.753 270.345)"/><path id="i" fill="red" d="M26.69-186.57h.06v106.81h106.68v-.06L26.69-186.57z" style="display:block" transform="translate(214 214.76)"/><path id="h" style="display:none"/><path id="l" style="display:none"/><path id="m" style="display:none"/><path id="b" style="display:none"/><path id="d" style="display:none"/><filter id="f" width="100%" height="100%" x="0%" y="0%" filterUnits="objectBoundingBox"><feComponentTransfer in="SourceGraphic"><feFuncA tableValues="1.0 0.0" type="table"/></feComponentTransfer></filter><filter id="j" width="100%" height="100%" x="0%" y="0%" filterUnits="objectBoundingBox"><feComponentTransfer in="SourceGraphic"><feFuncA tableValues="1.0 0.0" type="table"/></feComponentTransfer></filter><g id="k" style="display:none"><path fill-opacity="0"/><path/></g><g id="n" style="display:none"><path fill-opacity="0" stroke-linecap="round" stroke-linejoin="round" class="primary"/><path/><g style="mix-blend-mode:multiply"><path fill-opacity="0" stroke-linecap="round" stroke-linejoin="round" class="primary"/><path/></g></g></defs><g clip-path="url(#o)"><g clip-path="url(#p)" style="display:none"><g style="display:none"><path fill="none" class="tertiary"/><path class="tertiary"/><g style="mix-blend-mode:multiply"><path fill="none" class="tertiary"/><path class="tertiary"/></g></g><g mask="url(#q)" style="mix-blend-mode:multiply;display:none"><path fill="none" class="tertiary"/><path class="tertiary"/></g><g style="display:none"><path fill="none" class="tertiary"/><path class="tertiary"/></g><g style="display:none"><path fill="none" class="tertiary"/><path class="tertiary"/></g><g style="mix-blend-mode:multiply;display:none"><path fill="none" class="tertiary"/><path class="tertiary"/></g><g style="display:none"><path fill="none" class="tertiary"/><path class="tertiary"/></g><g clip-path="url(#r)" style="display:none"><path class="secondary" style="display:none"/><g mask="url(#s)" style="mix-blend-mode:multiply;display:none"><path class="secondary"/></g><path fill="none" class="primary" style="display:none"/></g><g fill="none" mask="url(#t)" style="display:none"><path class="primary"/><path class="primary"/><path class="primary"/></g><g clip-path="url(#u)" mask="url(#t)" style="display:none"><path class="secondary" style="display:none"/><g mask="url(#v)" style="mix-blend-mode:multiply;display:none"><path class="secondary"/></g><path fill="none" class="primary" style="display:none"/></g><path fill="none" class="primary" style="display:none"/><g fill="none" style="display:none"><path class="primary"/><path class="primary"/></g><path fill="none" class="primary" style="display:none"/></g><g clip-path="url(#w)" style="display:block"><g style="display:block"><path fill="none" stroke="#EBE6EF" stroke-linecap="round" stroke-linejoin="round" stroke-width="7" d="M241.69 28.19H81.57v373.14h266.86V134.94L241.69 28.19zm0 0v106.75h106.74" class="tertiary"/><path fill="#EBE6EF" d="M241.69 28.19H81.57v373.14h266.86V134.94L241.69 28.19zm0 0v106.75h106.74" class="tertiary"/></g><g clip-path="url(#x)" mask="url(#y)" style="display:none"><path class="secondary" style="display:none"/><g mask="url(#z)" style="mix-blend-mode:multiply;display:none"><path class="secondary"/></g><path fill="none" class="primary" style="display:none"/></g><g clip-path="url(#A)" mask="url(#B)" style="display:block"><path fill="#08A88A" d="M49.774-58.223a3 3 0 0 0-4.243 0L-16.483 3.79l-29.048-29.049a3 3 0 0 0-4.243 0L-73.815-1.217a3 3 0 0 0 0 4.243l55.225 55.198a3.001 3.001 0 0 0 4.243-.001l88.162-88.162a3 3 0 0 0 0-4.243L49.774-58.223z" class="secondary" style="display:block" transform="translate(216.753 270.345)"/><g mask="url(#C)" opacity=".5" style="mix-blend-mode:multiply;display:block"><path fill="#08A88A" d="M200 202.5V397H84.5V202.5H200z" class="secondary" opacity="1"/></g><path fill="none" stroke="#121331" stroke-width="7" d="M49.774-58.223a3 3 0 0 0-4.243 0L-16.483 3.79l-29.048-29.049a3 3 0 0 0-4.243 0L-73.815-1.217a3 3 0 0 0 0 4.243l55.225 55.198a3.001 3.001 0 0 0 4.243-.001l88.162-88.162a3 3 0 0 0 0-4.243L49.774-58.223z" class="primary" style="display:block" transform="translate(216.753 270.345)"/></g><g opacity=".5" style="mix-blend-mode:multiply;display:block"><g opacity="1"><path fill="none" stroke="#EBE6EF" stroke-linecap="round" stroke-linejoin="round" stroke-width="7" d="M240.69 28.19h.06V135h106.68v-.06L240.69 28.19z" class="primary"/><path fill="#EBE6EF" d="M240.69 28.19h.06V135h106.68v-.06L240.69 28.19z"/></g></g><g style="mix-blend-mode:multiply;display:none"><path fill="none" class="tertiary"/><path class="tertiary"/></g><g fill="none" stroke="#121331" stroke-linecap="round" stroke-linejoin="round" stroke-width="7" style="display:block"><path d="M241.69 28.19H81.57v373.14h266.86V134.94L241.69 28.19z" class="primary"/><path d="M241.687 28.194V134.94h106.746" class="primary"/></g><path fill="none" stroke="#121331" stroke-linecap="round" stroke-linejoin="round" stroke-width="7" d="M-53.373-53.373s3.306 2.315 53 52.746c50.313 51.06 53.746 54 53.746 54" class="primary" style="display:block" transform="translate(295.06 81.567)"/></g><g clip-path="url(#D)" style="display:none"><path class="tertiary" style="display:none"/><path class="tertiary" style="display:none"/><g clip-path="url(#E)" mask="url(#F)" style="display:none"><path class="secondary" style="display:none"/><g mask="url(#G)" style="mix-blend-mode:multiply;display:none"><path class="secondary"/></g><path fill="none" class="primary" style="display:none"/></g><path fill="none" class="primary" style="display:none"/><g style="display:none"><path class="tertiary"/><path class="tertiary" style="mix-blend-mode:multiply"/><path fill="none" class="primary"/><path fill="none" class="primary"/></g><path fill="none" class="primary" style="display:none"/></g><g clip-path="url(#H)" style="display:none"><g style="display:none"><path class="tertiary"/><path fill="none" class="tertiary"/></g><g style="display:none"><path fill="none" class="tertiary"/><path class="tertiary"/></g><g style="display:none"><path fill="none" class="tertiary"/><path class="tertiary"/><path fill="none" class="tertiary"/></g><g style="mix-blend-mode:multiply;display:none"><path fill="none" class="tertiary"/><path class="tertiary"/><path fill="none" class="tertiary"/></g><g clip-path="url(#I)" mask="url(#J)" style="display:none"><path class="secondary" style="display:none"/><g mask="url(#K)" style="mix-blend-mode:multiply;display:none"><path class="secondary"/></g><path fill="none" class="primary" style="display:none"/></g><path fill="none" class="primary" style="display:none"/><path fill="none" class="primary" style="display:none"/><g fill="none" style="display:none"><path class="primary"/><path class="primary"/></g></g></g></svg>