<svg xmlns="http://www.w3.org/2000/svg" width="430" height="430" style="width:100%;height:100%;transform:translate3d(0,0,0);content-visibility:visible" viewBox="0 0 430 430"><defs><clipPath id="e"><path d="M0 0h430v430H0z"/></clipPath><clipPath id="o"><path d="M0 0h430v430H0z"/></clipPath><clipPath id="n"><path d="M0 0h430v430H0z"/></clipPath><clipPath id="m"><path d="M0 0h430v430H0z"/></clipPath><clipPath id="l"><path d="M0 0h430v430H0z"/></clipPath><clipPath id="k"><path d="M0 0h430v430H0z"/></clipPath><clipPath id="j"><path d="M0 0h430v430H0z"/></clipPath><clipPath id="i"><path d="M0 0h430v430H0z"/></clipPath><clipPath id="h"><path d="M0 0h430v430H0z"/></clipPath><clipPath id="f"><path d="M0 0h430v430H0z"/></clipPath><filter id="a" width="100%" height="100%" x="0%" y="0%" filterUnits="objectBoundingBox"><feComponentTransfer in="SourceGraphic"><feFuncA tableValues="1.0 0.0" type="table"/></feComponentTransfer></filter><filter id="c" width="100%" height="100%" x="0%" y="0%" filterUnits="objectBoundingBox"><feComponentTransfer in="SourceGraphic"><feFuncA tableValues="1.0 0.0" type="table"/></feComponentTransfer></filter><path id="b" style="display:none"/><path id="d" class="tertiary" style="display:none"/><mask id="p" mask-type="alpha"><g filter="url(#a)"><path fill="#fff" d="M0 0h430v430H0z" opacity="0"/><use xmlns:ns1="http://www.w3.org/1999/xlink" ns1:href="#b"/></g></mask><mask id="g" mask-type="alpha"><g filter="url(#c)"><path fill="#fff" d="M0 0h430v430H0z" opacity="0"/><use xmlns:ns2="http://www.w3.org/1999/xlink" ns2:href="#d"/></g></mask></defs><g clip-path="url(#e)"><g clip-path="url(#f)" style="display:none"><path fill="none" class="primary" style="display:none"/><path fill="none" class="primary" style="display:none"/><path class="tertiary" style="display:none"/><g style="mix-blend-mode:multiply;display:none"><path class="tertiary" style="mix-blend-mode:multiply"/><path class="tertiary" style="mix-blend-mode:multiply"/></g><path class="secondary" style="display:none"/><g style="display:none"><g style="mix-blend-mode:multiply"><path class="secondary"/><path class="secondary" style="mix-blend-mode:multiply"/></g></g><g fill="none" style="display:none"><path class="primary"/><path class="primary"/></g><path fill="none" class="primary" style="display:none"/><path class="tertiary" style="display:none"/><g mask="url(#g)" style="mix-blend-mode:multiply;display:none"><path class="tertiary"/></g><path fill="none" class="primary" style="display:none"/><path fill="none" class="primary" style="display:none"/></g><g clip-path="url(#h)" style="display:none"><path class="secondary" style="display:none"/><g style="display:none"><path class="secondary"/><path class="secondary" style="mix-blend-mode:multiply"/><path fill="none" class="primary"/></g><path class="nonary" style="display:none"/><g style="display:none"><path class="senary"/><path class="senary" style="mix-blend-mode:multiply"/><path fill="none" class="primary"/><path class="senary"/><path fill="none" class="primary"/><path class="quaternary"/><path fill="none" class="primary"/></g><path class="nonary" style="mix-blend-mode:multiply;display:none"/><path fill="none" class="primary" style="display:none"/><g style="display:none"><path class="tertiary"/><path class="secondary"/></g><g style="display:none"><path class="tertiary"/><path class="secondary"/></g><g style="display:none"><path class="tertiary"/><path class="secondary"/></g><g style="mix-blend-mode:multiply;display:none"><path class="tertiary"/><path class="secondary"/></g><g style="mix-blend-mode:multiply;display:none"><path class="tertiary"/><path class="secondary"/></g><path fill="none" class="primary" style="display:none"/><g fill="none" style="display:none"><path class="primary"/><path class="primary"/></g><g style="display:none"><path class="secondary"/><path class="secondary" style="mix-blend-mode:multiply"/><path fill="none" class="primary"/></g></g><g clip-path="url(#i)" style="display:none"><path class="tertiary" style="display:none"/><g style="mix-blend-mode:multiply;display:none"><path class="tertiary" style="mix-blend-mode:multiply"/><path class="tertiary" style="mix-blend-mode:multiply"/></g><g style="display:none"><path class="secondary"/><path class="secondary" style="mix-blend-mode:multiply"/></g><g fill="none" style="display:none"><path class="primary"/><path class="primary"/><path class="primary"/></g><g style="display:none"><path class="quaternary"/><path class="quaternary" style="mix-blend-mode:multiply"/><path fill="none" class="primary"/><path fill="none" class="primary"/></g></g><g clip-path="url(#j)" style="display:none"><path class="secondary" style="display:none"/><g style="display:none"><path fill="none" class="primary"/><path class="secondary"/><path class="secondary" style="mix-blend-mode:multiply"/></g><path class="tertiary" style="display:none"/><g style="display:none"><path class="quinary"/><path fill="none" class="primary"/><path fill="none" class="primary"/><path class="septenary"/><path fill="none" class="primary"/></g><path class="tertiary" style="mix-blend-mode:multiply;display:none"/><path fill="none" class="primary" style="display:none"/><g style="display:none"><path class="tertiary"/><path class="secondary"/></g><g style="display:none"><path class="tertiary"/><path class="secondary"/></g><g style="display:none"><path class="tertiary"/><path class="secondary"/></g><g style="mix-blend-mode:multiply;display:none"><path class="tertiary"/><path class="secondary"/></g><g style="mix-blend-mode:multiply;display:none"><path class="tertiary"/><path class="secondary"/></g><path fill="none" class="primary" style="display:none"/><g fill="none" style="display:none"><path class="primary"/><path class="primary"/></g><g style="display:none"><path class="secondary"/><path class="secondary" style="mix-blend-mode:multiply"/><path fill="none" class="primary"/></g></g><g clip-path="url(#k)" style="display:none"><path class="secondary" style="display:none"/><g style="display:none"><path class="secondary"/><path class="secondary" style="mix-blend-mode:multiply"/><path fill="none" class="primary"/></g><path class="tertiary" style="display:none"/><path class="octonary" style="display:none"/><path class="quinary" style="display:none"/><path class="quinary" style="mix-blend-mode:multiply;display:none"/><path class="octonary" style="mix-blend-mode:multiply;display:none"/><path class="septenary" style="display:none"/><path class="septenary" style="mix-blend-mode:multiply;display:none"/><path fill="none" class="primary" style="display:none"/><path fill="none" class="primary" style="display:none"/><path fill="none" class="primary" style="display:none"/><path class="tertiary" style="mix-blend-mode:multiply;display:none"/><path fill="none" class="primary" style="display:none"/><g style="display:none"><path class="tertiary"/><path class="secondary"/></g><g style="display:none"><path class="tertiary"/><path class="secondary"/></g><g style="display:none"><path class="tertiary"/><path class="secondary"/></g><g style="mix-blend-mode:multiply;display:none"><path class="tertiary"/><path class="secondary"/></g><g style="mix-blend-mode:multiply;display:none"><path class="tertiary"/><path class="secondary"/></g><path fill="none" class="primary" style="display:none"/><g fill="none" style="display:none"><path class="primary"/><path class="primary"/></g><g style="display:none"><path class="secondary"/><path class="secondary" style="mix-blend-mode:multiply"/><path fill="none" class="primary"/></g></g><g clip-path="url(#l)" style="display:none"><path class="secondary" style="display:none"/><g style="display:none"><path class="secondary"/><path class="secondary" style="mix-blend-mode:multiply"/><path fill="none" class="primary"/></g><path class="tertiary" style="display:none"/><g fill="none" style="display:none"><path class="primary"/><path class="primary"/><path class="primary"/><path class="primary"/><path class="primary"/></g><path class="tertiary" style="mix-blend-mode:multiply;display:none"/><path fill="none" class="primary" style="display:none"/><g style="display:none"><path class="tertiary"/><path class="secondary"/></g><g style="display:none"><path class="tertiary"/><path class="secondary"/></g><g style="display:none"><path class="tertiary"/><path class="secondary"/></g><g style="mix-blend-mode:multiply;display:none"><path class="tertiary"/><path class="secondary"/></g><g style="mix-blend-mode:multiply;display:none"><path class="tertiary"/><path class="secondary"/></g><path fill="none" class="primary" style="display:none"/><g fill="none" style="display:none"><path class="primary"/><path class="primary"/></g><g style="display:none"><path class="secondary"/><path class="secondary" style="mix-blend-mode:multiply"/><path fill="none" class="primary"/></g></g><g clip-path="url(#m)" style="display:block"><path fill="#EBE6EF" d="M159.17-102.4v204.82c0 1.66-1.34 3-3 3h-312.34c-1.66 0-3-1.34-3-3v-204.84c0-.83.34-1.58.88-2.12.54-.55 1.29-.88 2.12-.88h17.13l295.21.02c.83 0 1.58.33 2.12.88.54.54.88 1.29.88 2.12z" class="tertiary" style="display:block" transform="translate(214.998 215.003)"/><path fill="#EBE6EF" d="M54.649-49.661-55.004 37.077l.095-13.82 82.418-70.752c1.56-1.354 10.185-6.753 18.892-11.809-1.947-1.007-3.8-2.353-6.742-4.759-16.111-14.256-68.41-55.719-94.034-83.174-.444-2.39-1.482-5.974 1.226-5.589 39.52 5.624 216.043 13.539 303.704-.249 4.012-.631 6.046-3.078 7.452 2.551-16.126 18.271-76.619 78.318-80.361 81.384-6.066 4.971-7.146 8.578-11.205 11.482 6.762 3.734 7.228 4.946 12.364 9.612 29.354 26.667 76.043 71.875 83.789 78.751 0 0-.428 7.123-.158 12.607-21.915-16.662-94.01-82.489-108.721-92.311-15.049-10.048-31.847-10.713-46.293-10.598-24.329.193-52.773 9.936-52.773 9.936z" class="tertiary" opacity=".5" style="mix-blend-mode:multiply;display:block" transform="translate(111.123 262.377)"/><path fill="none" stroke="#121331" stroke-linecap="round" stroke-linejoin="round" stroke-width="7" d="M159.17-102.4v204.82c0 1.66-1.34 3-3 3h-312.34c-1.66 0-3-1.34-3-3v-204.84c0-.83.34-1.58.88-2.12.54-.55 1.29-.88 2.12-.88h17.13l295.21.02c.83 0 1.58.33 2.12.88.54.54.88 1.29.88 2.12z" class="primary" style="display:block" transform="translate(214.998 215.003)"/><g fill="none" stroke="#121331" stroke-linecap="round" stroke-linejoin="round" stroke-width="7.4" style="display:block"><path d="M56.72 298.741s52.795-43.989 84.81-69.282c22.197-17.534 46.077-25.545 74.352-26.296 26.61-.707 48.777 6.29 68.846 23.78 32.934 28.7 89.659 78.629 89.659 78.629" class="primary"/><path d="m60.912 109.442 101.76 105.283m208.33-105.283L268.518 215.125" class="primary" opacity="0"/></g><g style="display:block"><path fill="#4BB3FD" d="m373.288 109.482-132.28 132.73c-5.9 5.9-13.29 9.39-20.95 10.47-11.11 1.57-22.79-1.92-31.33-10.47l-132.02-132.75 2.12-.88h17.13l295.21.02c.83 0 1.58.33 2.12.88z" class="secondary"/><path fill="#4BB3FD" d="m-81.675-71.353 132.02 132.75c8.54 8.55 20.22 12.04 31.33 10.47l-144.1-144.1h-17.13l-2.12.88z" class="secondary" opacity=".5" style="mix-blend-mode:multiply" transform="translate(138.383 180.815)"/><path fill="none" stroke="#121331" stroke-linecap="round" stroke-linejoin="round" stroke-width="7" d="m373.288 109.482-132.28 132.73c-5.9 5.9-13.29 9.39-20.95 10.47-11.11 1.57-22.79-1.92-31.33-10.47l-132.02-132.75 2.12-.88h17.13l295.21.02c.83 0 1.58.33 2.12.88z" class="primary"/></g></g><g clip-path="url(#n)" style="display:none"><g style="display:none"><path class="tertiary"/><path fill="none" class="primary"/></g><path class="tertiary" style="display:none"/><g style="mix-blend-mode:multiply;display:none"><path class="tertiary" style="mix-blend-mode:multiply"/><path class="tertiary" style="mix-blend-mode:multiply"/></g><path class="secondary" style="display:none"/><g style="display:none"><g style="mix-blend-mode:multiply"><path class="secondary"/><path class="secondary" style="mix-blend-mode:multiply"/></g></g><path fill="none" class="primary" style="display:none"/><path fill="none" class="primary" style="display:none"/><path fill="none" class="primary" style="display:none"/></g><g clip-path="url(#o)" style="display:none"><path class="tertiary" style="display:none"/><g mask="url(#p)" style="display:none"><path class="tertiary"/><path class="tertiary"/><path fill="none" class="primary"/></g><path class="tertiary" style="mix-blend-mode:multiply;display:none"/><path fill="none" class="primary" style="display:none"/><path class="tertiary" style="display:none"/><path class="secondary" style="display:none"/><path fill="none" class="primary" style="display:none"/><path fill="none" class="primary" style="display:none"/></g></g></svg>