<svg xmlns="http://www.w3.org/2000/svg" width="430" height="430" style="width:100%;height:100%;transform:translate3d(0,0,0);content-visibility:visible" viewBox="0 0 430 430"><defs><clipPath id="d"><path d="M0 0h430v430H0z"/></clipPath><clipPath id="e"><path d="M0 0h430v430H0z"/></clipPath><path id="b" fill="red" d="M-1.94-157h3.88c33.734 0 60.747 27.969 59.574 61.682l-1.94 55.781C58.458-7.442 32.115 18 0 18c-32.115 0-58.458-25.442-59.574-57.537l-1.94-55.781C-62.687-129.031-35.674-157-1.94-157z" style="display:block" transform="translate(215 215)"/><path id="c" fill="red" d="M33.88 26.69h7.62c45.84 0 83 37.16 83 83v27.76c0 7.62-5.71 14.03-13.28 14.9l-29.04 3.36a85.26 85.26 0 0 0-23.07 6.03c-18.91 7.91-39 11.88-59.11 11.92h-.3c-20.1 0-40.2-3.93-59.12-11.8l-.2-.08c-7.69-3.2-15.79-5.3-24.07-6.26l-27.53-3.17c-7.57-.87-13.28-7.28-13.28-14.9v-27.76c0-45.84 37.16-83 83-83h7.63" style="display:block" transform="translate(215 215)"/><mask id="g" mask-type="alpha"><g filter="url(#a)"><path fill="#fff" d="M0 0h430v430H0z" opacity="0"/><use xmlns:ns1="http://www.w3.org/1999/xlink" ns1:href="#b"/></g></mask><mask id="f" mask-type="alpha"><use xmlns:ns2="http://www.w3.org/1999/xlink" ns2:href="#c"/></mask><filter id="a" width="100%" height="100%" x="0%" y="0%" filterUnits="objectBoundingBox"><feComponentTransfer in="SourceGraphic"><feFuncA tableValues="1.0 0.0" type="table"/></feComponentTransfer></filter></defs><g clip-path="url(#d)"><g clip-path="url(#e)" style="display:block"><path fill="#90140C" d="M33.88 26.69h7.62c45.84 0 83 37.16 83 83v27.76c0 7.62-5.71 14.03-13.28 14.9l-29.04 3.36a85.26 85.26 0 0 0-23.07 6.03c-18.91 7.91-39 11.88-59.11 11.92h-.3c-20.1 0-40.2-3.93-59.12-11.8l-.2-.08c-7.69-3.2-15.79-5.3-24.07-6.26l-27.53-3.17c-7.57-.87-13.28-7.28-13.28-14.9v-27.76c0-45.84 37.16-83 83-83h7.63" class="secondary" style="display:block" transform="translate(215 215)"/><g fill="#3A3347" style="display:block"><path d="m275.7 244.001-20.7 13.18.03 77.98h-80.06l-.03-78.24-20.49-12.96c-4.16.97-8.19 2.26-12.08 3.84v124.78c4.43 1.08 8.78 2.51 13.01 4.27l.2.08c18.92 7.87 39.02 11.8 59.12 11.8 20.21 0 40.41-3.97 59.41-11.92a85.94 85.94 0 0 1 13.52-4.37v-124.64a80.064 80.064 0 0 0-11.93-3.8z" class="quinary"/><path d="M15.99-2.48C8.89.64-3.925 7.04-9.865 10.9V-7.06c3.89-1.58 7.92-2.87 12.08-3.84L15.99-2.48z" class="quinary" opacity=".5" style="mix-blend-mode:multiply" transform="translate(152.225 254.901)"/></g><g style="display:block"><g fill="#90140C" style="mix-blend-mode:multiply"><path d="m275.623 244-33.39 48.789-4.04 5.901c-.45.66-1.12 1.07-1.82 1.23-.11.02-.21.04-.31.05-.21.03-.42.03-.63 0-.08-.01-.17-.02-.25-.04-.18-.03-.35-.091-.52-.161-.33-.11-.64-.269-.91-.509-.15-.12-.29-.271-.41-.431l-4.69-6.04-13.54-17.46h-.19l-13.54 17.46-4.69 6.04c-.46.6-1.08.961-1.74 1.101-.1.02-.19.03-.29.04-.21.03-.42.03-.63 0-.09-.01-.17-.02-.26-.04a2.954 2.954 0 0 1-1.92-1.24l-4.04-5.901-33.44-48.829h.01c.77-.18 1.55-.35 2.34-.51 2.3-.48 4.65-.85 7.02-1.13 3.17-.37 6.4-.56 9.68-.56h7.94l33.56 33.56.03-.02 33.54-33.54h7.93a82.786 82.786 0 0 1 14.52 1.27c.79.14 1.57.289 2.35.449.78.17 1.55.341 2.32.521h.01z" class="secondary"/><path fill-opacity=".5" d="m60.625-26.876-33.39 48.789-4.04 5.901c-.45.66-1.12 1.07-1.82 1.23-.11.02-.21.04-.31.05-.21.03-.42.03-.63 0-.08-.01-.17-.02-.25-.04-.18-.03-.35-.091-.52-.161-.33-.11-.64-.269-.91-.509-.15-.12-.29-.271-.41-.431l-4.69-6.04L.115 4.453h-.19l-13.54 17.46-4.69 6.04c-.46.6-1.08.961-1.74 1.101-.1.02-.19.03-.29.04-.21.03-.42.03-.63 0-.09-.01-.17-.02-.26-.04a2.954 2.954 0 0 1-1.92-1.24l-4.04-5.901-33.44-48.829h.01c.77-.18 1.55-.35 2.34-.51 2.3-.48 4.65-.85 7.02-1.13 3.17-.37 6.4-.56 9.68-.56h7.94l33.56 33.56.03-.02 33.54-33.54h7.93a82.786 82.786 0 0 1 14.52 1.27c.79.14 1.57.289 2.35.449.78.17 1.55.341 2.32.521h.01z" class="secondary" style="mix-blend-mode:multiply" transform="translate(214.998 270.876)"/></g></g><g opacity=".5" style="mix-blend-mode:multiply;display:block"><path fill="#90140C" d="M25.93-60.245v17.96c-10.94 7.09-19.36 14.87-23.16 21.32-9.48 16.09-7.43 81.21-7.43 81.21l-7.99-.92c-.95-.11-1.86-.3-2.75-.58-5.58-1.73-9.69-6.61-10.42-12.47-.05-.41-.08-.82-.1-1.23-.01-.2-.01-.41-.01-.62v-27.76c0-1.41.04-2.81.1-4.2.04-.67.08-1.34.13-2.01.11-1.49.26-2.97.45-4.44.06-.53.14-1.06.21-1.58.13-.87.27-1.73.43-2.58.09-.54.19-1.07.3-1.6.08-.41.17-.82.26-1.22.09-.44.19-.87.29-1.3.23-1.02.49-2.03.77-3.03a38 38 0 0 1 .28-1.01c.07-.25.14-.49.21-.73.13-.41.26-.83.39-1.24.46-1.46.96-2.91 1.5-4.34 0-.03.01-.05.02-.07l.48-1.23c.04-.11.08-.21.12-.31a87.1 87.1 0 0 1 1.78-4.09c.25-.53.5-1.06.76-1.59.04-.08.08-.17.13-.25.27-.56.56-1.12.85-1.67.91-1.73 1.88-3.43 2.9-5.09 9.24-14.9 23.06-26.67 39.5-33.33z" class="secondary" opacity="1" style="mix-blend-mode:multiply" transform="translate(116.43 308.087)"/></g><g style="display:block"><path fill="#F5C5BC" d="M248.88 222.44v18.94L215 275.25l-33.87-33.87v-18.93" class="tertiary"/><path fill="none" d="M248.88 222.44v18.94L215 275.25l-33.87-33.87v-18.93" class="primary"/></g><g opacity=".5" style="mix-blend-mode:multiply;display:block"><path fill="#F5C5BC" d="M33.875-12.905s-13.5 21.7-47.74 22.93c-6.36.23-12.87 1.25-19.3 2.88-.09-.43-.18-.87-.25-1.31-.03-.19-.06-.39-.09-.59-.05-.3-.09-.6-.12-.91-.16-1.23-.24-2.48-.25-3.75l.098-47.49c9.63 6.66 55.31-6.2 67.87-6.2-.315 9.463-.066 19.213-.218 34.44z" class="tertiary" opacity="1" style="mix-blend-mode:multiply" transform="translate(214.973 235.914)"/></g><g style="display:block"><path fill="#F5C5BC" d="m276.393 118.419-1.819 57.044C273.458 207.558 247.115 233 215 233c-32.115 0-58.458-25.442-59.574-57.537l-2.061-57.044" class="tertiary"/><path fill="none" d="m276.393 118.419-1.819 57.044C273.458 207.558 247.115 233 215 233c-32.115 0-58.458-25.442-59.574-57.537l-2.061-57.044" class="primary"/></g><g style="display:block"><path fill="#FBC339" d="m283.562 91.688-22.131-45.422c-5.44-11.164-15.662-18.072-26.745-18.072h-39.372c-11.083 0-21.305 6.908-26.745 18.072l-22.131 45.422" class="quaternary"/><path fill="none" d="m283.562 91.688-22.131-45.422c-5.44-11.164-15.662-18.072-26.745-18.072h-39.372c-11.083 0-21.305 6.908-26.745 18.072l-22.131 45.422" class="primary"/><path fill="#FBC339" d="M90.687 121.802h248.25v-3.285c0-14.808-12.004-26.812-26.812-26.812H117.5c-14.808 0-26.813 12.004-26.813 26.812v3.285z" class="quaternary"/><path fill="#FBC339" fill-opacity=".5" d="M-124.313 61.861h248.25v-3.285c0-14.808-12.004-26.812-26.812-26.812H-97.5c-14.808 0-26.813 12.004-26.813 26.812v3.285z" class="quaternary" style="mix-blend-mode:multiply" transform="translate(215 59.941)"/><path fill="none" d="M90.687 121.802h248.25v-3.285c0-14.808-12.004-26.812-26.812-26.812H117.5c-14.808 0-26.813 12.004-26.813 26.812v3.285z" class="primary"/></g><g fill="none" stroke="#121331" stroke-linecap="round" stroke-linejoin="round" stroke-width="7" mask="url(#f)" style="display:block"><path d="M142.37 247.73v87.36h32.6v-61.24m-32.6 98.66v-37.42h145.26v37.28" class="primary"/><path d="M255.03 274.11v60.98h32.6v-87.36m-133.18-3.847 39.8 58.12 20.75-26.75" class="primary"/><path d="m215.19 275.253 20.75 26.75 39.76-58.08" class="primary"/></g><g mask="url(#g)" style="display:block"><path fill="none" stroke="#121331" stroke-linecap="round" stroke-linejoin="round" stroke-width="7" d="M248.88 222.44v18.94L215 275.25l-33.87-33.87v-18.93" class="primary"/></g><path fill="none" stroke="#121331" stroke-linecap="round" stroke-linejoin="round" stroke-width="7" d="M33.88 26.69h7.62c45.84 0 83 37.16 83 83v27.76c0 7.62-5.71 14.03-13.28 14.9l-29.04 3.36a85.26 85.26 0 0 0-23.07 6.03c-18.91 7.91-39 11.88-59.11 11.92h-.3c-20.1 0-40.2-3.93-59.12-11.8l-.2-.08c-7.69-3.2-15.79-5.3-24.07-6.26l-27.53-3.17c-7.57-.87-13.28-7.28-13.28-14.9v-27.76c0-45.84 37.16-83 83-83h7.63M61.393-91.53l-1.819 51.993C58.458-7.442 32.115 18 0 18c0 0 0 0 0 0-32.115 0-58.458-25.442-59.574-57.537l-2.061-51.993" class="primary" style="display:block" transform="translate(215 215)"/><path fill="none" stroke="#121331" stroke-linecap="round" stroke-linejoin="round" stroke-width="7" d="M-124.313 61.861h248.25v-3.285c0-14.808-12.004-26.812-26.812-26.812H-97.5c-14.808 0-26.813 12.004-26.813 26.812v3.285zM68.562 31.747 46.431-13.675c-5.44-11.164-15.662-18.072-26.745-18.072h-39.372c-11.083 0-21.305 6.908-26.745 18.072l-22.131 45.422" class="primary" style="display:block" transform="translate(215 59.941)"/></g></g></svg>