<svg xmlns="http://www.w3.org/2000/svg" width="430" height="430" style="width:100%;height:100%;transform:translate3d(0,0,0);content-visibility:visible" viewBox="0 0 430 430"><defs><clipPath id="a"><path d="M0 0h430v430H0z"/></clipPath><clipPath id="c"><path d="M0 0h430v430H0z"/></clipPath><clipPath id="b"><path d="M0 0h430v430H0z"/></clipPath></defs><g clip-path="url(#a)"><g clip-path="url(#b)" style="display:none"><path class="tertiary" style="display:none"/><g style="display:none"><path class="tertiary"/><path class="tertiary" style="mix-blend-mode:multiply"/></g><path class="quaternary" style="display:none"/><path class="tertiary" style="display:none"/><path class="tertiary" style="display:none"/><g fill="none" style="display:none"><path class="primary"/><path class="primary"/></g><path fill="none" class="primary" style="display:none"/><path fill="none" class="primary" style="display:none"/><g style="display:none"><path fill="none" class="primary"/><path class="secondary"/></g><g style="display:none"><path fill="none" class="primary"/><path class="secondary"/></g><g style="display:none"><path fill="none" class="primary"/><path class="secondary"/></g><g style="display:none"><path fill="none" class="primary"/><path class="secondary"/></g><g style="display:none"><path fill="none" class="primary"/><path class="secondary"/></g><g style="display:none"><path fill="none" class="primary"/><path class="secondary"/></g><g style="display:none"><path fill="none" class="primary"/><path class="secondary"/></g><g style="display:none"><path fill="none" class="primary"/><path class="secondary"/></g><g style="display:none"><path fill="none" class="primary"/><path class="secondary"/></g><g style="display:none"><path fill="none" class="primary"/><path class="secondary"/></g></g><g clip-path="url(#c)" style="display:block"><path fill="#FFC738" d="M63.25-39.256c30.407 6.683 61.554-7.396 104.679-27.043C157.593-48.782 130.104-9.488 124.36-.937c10.119 14.621 26.674 56.19 30.03 79.379-44.751-26.197-56.147-37.729-98.289-33.15" class="tertiary" style="display:block" transform="translate(215 235)"/><g style="display:block"><path fill="#FFC738" d="M155.941 154.468c1.481-8.704 5.896-17.883 10.47-25.546 6.674-11.18 20.618-15.638 32.51-10.336 18.366 8.188 47.169 24.101 76.708 52.575-8.23 9.89-7.788 16.187-7.788 16.187m-95.33 117.094s37.421 15.035 67.806 15.035c12.384-14.246-2.703-29.491-2.703-29.491" class="tertiary"/><path fill="none" stroke="#121331" stroke-linecap="round" stroke-linejoin="round" stroke-width="7" d="m93.014 221.07.589-.02" class="primary"/></g><path fill="#F24C00" d="M-119.469-53.612c23.65 11.51 39.18 30.99 39.18 53.07 0 21.15-14.26 39.9-36.23 51.56m-50.874-52.064c7.849 3.264 16.978 6.455 23.159 6.729M84.33-.575c0 19.291-8.905 44.241-29.656 46.028C26.17 47.907-1.939 69.442-35.703 69.442c-32.034 0-61.78-6.987-86.438-21.56-19.291-11.404-35.453-27.457-47.168-48.457 14.673-13.114 28.577-32.684 45.708-49.186 17.712-17.052 38.882-30.845 67.908-30.845 38.032 0 81.711 14.282 114.525 37.951C75.274-30.791 84.33-16.238 84.33-.575z" class="quaternary" style="display:block" transform="translate(215 235)"/><path fill="#FFC738" d="M-26.776 12.527c70.649 29.54 68.964-25.077 53.373-31.374-19.802-7.998-53.373 6.689-53.373 6.689S-35.389-8.645-35.389 0s8.613 12.527 8.613 12.527z" class="tertiary" style="display:block" transform="rotate(-1.28 11216.381 -8457.885)"/><path fill="#FFC738" d="M-110.594 89.136a137.99 137.99 0 0 1-5.619-3.144c-19.291-11.404-35.452-27.457-47.167-48.457 14.673-13.114 28.577-32.684 45.708-49.186a177.001 177.001 0 0 1 4.13-3.854l.002.003c23.65 11.51 39.18 30.99 39.18 53.07 0 21.15-14.26 39.9-36.23 51.56l-.004.008z" class="tertiary" style="display:block" transform="translate(209.171 197.403)"/><g fill="none" stroke="#121331" stroke-linecap="round" stroke-linejoin="round" stroke-width="7" style="display:block"><path d="M155.941 154.468c1.481-8.704 5.896-17.883 10.47-25.546 6.674-11.18 20.618-15.638 32.51-10.336 18.366 8.188 47.169 24.101 76.708 52.575-8.23 9.89-7.788 16.187-7.788 16.187m-95.33 117.094s37.421 15.035 67.806 15.035c12.384-14.246-2.703-29.491-2.703-29.491m40.636-94.242c30.407 6.683 61.554-7.396 104.679-27.043-10.336 17.517-37.825 56.811-43.569 65.362 10.119 14.621 26.674 56.19 30.03 79.379-44.751-26.197-56.147-37.729-98.289-33.15" class="primary"/><path d="M95.531 181.388c23.65 11.51 39.18 30.99 39.18 53.07 0 21.15-14.26 39.9-36.23 51.56m-50.874-52.064c7.849 3.264 16.978 6.455 23.159 6.729m228.564-6.258c0 19.291-8.905 44.241-29.656 46.028-28.504 2.454-56.613 23.989-90.377 23.989-32.034 0-61.78-6.987-86.438-21.56-19.291-11.404-35.453-27.457-47.168-48.457 14.673-13.114 28.577-32.684 45.708-49.186 17.712-17.052 38.882-30.845 67.908-30.845 38.032 0 81.711 14.282 114.525 37.951 16.442 11.864 25.498 26.417 25.498 42.08z" class="primary"/></g><path fill="none" stroke="#121331" stroke-width="7" d="M-26.776 12.527c70.649 29.54 68.964-25.077 53.373-31.374-19.802-7.998-53.373 6.689-53.373 6.689S-35.389-8.645-35.389 0s8.613 12.527 8.613 12.527z" class="primary" style="display:block" transform="rotate(-1.28 11216.381 -8457.885)"/><path fill="none" stroke="#121331" stroke-linecap="round" stroke-linejoin="round" stroke-width="12.04" d="m-121.986-13.93.589-.02" class="primary" style="display:block" transform="translate(215 235)"/><g style="display:none"><path class="secondary"/><path fill="none" class="primary"/></g><g style="display:none"><path class="secondary"/><path fill="none" class="primary"/></g><g style="display:block"><path fill="#4BB3FD" d="M118.724 97.491c0 12.809-10.384 23.193-23.193 23.193-12.809 0-23.193-10.384-23.193-23.193 0-12.809 10.384-23.193 23.193-23.193 12.809 0 23.193 10.384 23.193 23.193z" class="secondary"/><path fill="none" stroke="#121331" stroke-linecap="round" stroke-linejoin="round" stroke-width="7" d="M118.724 97.491c0 12.809-10.384 23.193-23.193 23.193-12.809 0-23.193-10.384-23.193-23.193 0-12.809 10.384-23.193 23.193-23.193 12.809 0 23.193 10.384 23.193 23.193z" class="primary"/></g><g style="display:block"><path fill="#4BB3FD" d="M61.964 159.547c0 7.387-5.989 13.376-13.376 13.376s-13.376-5.989-13.376-13.376 5.989-13.376 13.376-13.376 13.376 5.989 13.376 13.376z" class="secondary"/><path fill="none" stroke="#121331" stroke-linecap="round" stroke-linejoin="round" stroke-width="7" d="M61.964 159.547c0 7.387-5.989 13.376-13.376 13.376s-13.376-5.989-13.376-13.376 5.989-13.376 13.376-13.376 13.376 5.989 13.376 13.376z" class="primary"/></g><g style="display:none"><path class="secondary"/><path fill="none" class="primary"/></g><g style="display:none"><path class="secondary"/><path fill="none" class="primary"/></g><g style="display:none"><path class="secondary"/><path fill="none" class="primary"/></g><g style="display:none"><path class="secondary"/><path fill="none" class="primary"/></g></g></g></svg>