<svg xmlns="http://www.w3.org/2000/svg" width="430" height="430" style="width:100%;height:100%;transform:translate3d(0,0,0);content-visibility:visible" viewBox="0 0 430 430"><defs><clipPath id="a"><path d="M0 0h430v430H0z"/></clipPath><clipPath id="e"><path d="M0 0h430v430H0z"/></clipPath><clipPath id="d"><path d="M0 0h430v430H0z"/></clipPath><clipPath id="c"><path d="M0 0h430v430H0z"/></clipPath><clipPath id="b"><path d="M0 0h430v430H0z"/></clipPath></defs><g clip-path="url(#a)"><g clip-path="url(#b)" style="display:none"><g style="display:none"><path class="primary"/><path class="primary" style="mix-blend-mode:multiply"/></g><g style="display:none"><path class="primary"/><path class="primary" style="mix-blend-mode:multiply"/></g><g style="display:none"><path class="primary"/><path class="primary" style="mix-blend-mode:multiply"/></g><g style="display:none"><path class="secondary"/><path class="secondary" style="mix-blend-mode:multiply"/></g><g style="display:none"><path class="primary"/><path class="primary" style="mix-blend-mode:multiply"/></g><g style="display:none"><path class="primary"/><path class="primary" style="mix-blend-mode:multiply"/></g><g style="display:none"><path class="primary"/><path class="primary" style="mix-blend-mode:multiply"/></g><g style="display:none"><path class="secondary"/><path class="secondary" style="mix-blend-mode:multiply"/></g></g><g clip-path="url(#c)" style="display:none"><g style="display:none"><path class="primary"/><path class="primary" style="mix-blend-mode:multiply"/></g><g style="display:none"><path class="primary"/><path class="primary" style="mix-blend-mode:multiply"/></g><g style="display:none"><path class="primary"/><path class="primary" style="mix-blend-mode:multiply"/></g><g style="display:none"><path class="secondary"/><path class="secondary" style="mix-blend-mode:multiply"/></g></g><g clip-path="url(#d)" style="display:block"><g fill="#EBE6EF" style="display:block"><path d="m74.448 237.211 114.855.251a7.303 7.303 0 0 1 7.304 7.304v115.108a7.303 7.303 0 0 1-7.304 7.304l-114.855-.251a7.303 7.303 0 0 1-7.303-7.304V244.515a7.303 7.303 0 0 1 7.303-7.304z" class="primary"/><path d="m-23.588-26.743 23.638.052v53.28l-23.638-.052a3 3 0 0 1-3-3v-47.28a3 3 0 0 1 3-3z" class="primary" opacity=".5" style="mix-blend-mode:multiply" transform="translate(131.876 302.32) scale(2.4346)"/></g><g fill="#EBE6EF" style="display:block"><path d="m240.8 237.038 114.855.25a7.303 7.303 0 0 1 7.304 7.304V359.7a7.303 7.303 0 0 1-7.304 7.304l-114.855-.25a7.303 7.303 0 0 1-7.303-7.305V244.341a7.303 7.303 0 0 1 7.303-7.303z" class="primary"/><path d="m-23.588-26.743 23.468.051.052 53.281-23.52-.052a3 3 0 0 1-3-3v-47.28a3 3 0 0 1 3-3z" class="primary" opacity=".5" style="mix-blend-mode:multiply" transform="translate(298.228 302.146) scale(2.4346)"/></g><g fill="#EBE6EF" style="display:block"><path d="m240.66 70.064 114.855.25a7.303 7.303 0 0 1 7.303 7.305v115.107a7.303 7.303 0 0 1-7.303 7.304l-114.855-.25a7.303 7.303 0 0 1-7.304-7.304V77.368a7.303 7.303 0 0 1 7.304-7.304z" class="primary"/><path d="m-23.588-26.743 23.553.051-.051 53.281-23.502-.052a3 3 0 0 1-3-3v-47.28a3 3 0 0 1 3-3z" class="primary" opacity=".5" style="mix-blend-mode:multiply" transform="translate(298.087 135.173) scale(2.4346)"/></g><g fill="#4BB3FD" style="display:block"><path d="m74.552 70.038 114.855.25a7.303 7.303 0 0 1 7.304 7.305V192.7a7.303 7.303 0 0 1-7.304 7.303l-114.855-.25a7.303 7.303 0 0 1-7.304-7.304V77.342a7.303 7.303 0 0 1 7.304-7.304z" class="secondary"/><path d="m-23.588-26.743 23.648.052v53.28l-23.648-.052a3 3 0 0 1-3-3v-47.28a3 3 0 0 1 3-3z" class="secondary" opacity=".5" style="mix-blend-mode:multiply" transform="translate(131.98 135.147) scale(2.4346)"/></g></g><g clip-path="url(#e)" style="display:none"><g style="display:none"><path class="primary"/><path class="primary" style="mix-blend-mode:multiply"/></g><g style="display:none"><path class="primary"/><path class="primary" style="mix-blend-mode:multiply"/></g><g style="display:none"><path class="primary"/><path class="primary" style="mix-blend-mode:multiply"/></g><g style="display:none"><path class="secondary"/><path class="secondary" style="mix-blend-mode:multiply"/></g></g></g></svg>