<svg xmlns="http://www.w3.org/2000/svg" width="430" height="430" style="width:100%;height:100%;transform:translate3d(0,0,0);content-visibility:visible" viewBox="0 0 430 430"><defs><mask id="h" mask-type="alpha"><use xmlns:ns1="http://www.w3.org/1999/xlink" ns1:href="#a"/></mask><mask id="g" mask-type="alpha"><use xmlns:ns2="http://www.w3.org/1999/xlink" ns2:href="#b"/></mask><mask id="i" mask-type="alpha"><g filter="url(#c)"><path fill="#fff" d="M0 0h430v430H0z" opacity="0"/><use xmlns:ns3="http://www.w3.org/1999/xlink" ns3:href="#d"/></g></mask><clipPath id="e"><path d="M0 0h430v430H0z"/></clipPath><clipPath id="f"><path d="M0 0h430v430H0z"/></clipPath><path id="a" fill="red" d="M58.472 105.054 190.443 237.28c14.57 14.598 38.23 14.6 52.801.003l131.954-132.185" style="display:block"/><path id="b" fill="red" d="M42-66h-85.5l-1.577 50.04 29.957 29.777s7.899-4.962 14.868-5.08c7.175-.122 14.892 4.574 14.892 4.574l28.954-29.423L42-66z" style="display:block" transform="translate(219.451 160.327) scale(3.64593)"/><filter id="c" width="100%" height="100%" x="0%" y="0%" filterUnits="objectBoundingBox"><feComponentTransfer in="SourceGraphic"><feFuncA tableValues="1.0 0.0" type="table"/></feComponentTransfer></filter><g id="d" style="display:block"><path fill="#121331" d="M123.412 130.986c-24.497-.6-30.365 13.029-13.096 30.414l76.168 76.675c17.27 17.385 44.952 17.036 61.777-.78l64.828-68.64c16.825-17.816 10.596-32.767-13.9-33.366l-175.777-4.303z" class="primary"/><path fill-opacity="0" stroke="#08A88A" stroke-width="0" d="M123.412 130.986c-24.497-.6-30.365 13.029-13.096 30.414l76.168 76.675c17.27 17.385 44.952 17.036 61.777-.78l64.828-68.64c16.825-17.816 10.596-32.767-13.9-33.366l-175.777-4.303z"/></g></defs><g clip-path="url(#e)"><g clip-path="url(#f)" style="display:block"><path fill="#EBE6EF" d="M159.17-102.4v204.82c0 1.66-1.34 3-3 3h-312.34c-1.66 0-3-1.34-3-3v-204.84c0-.83.34-1.58.88-2.12.54-.55 1.29-.88 2.12-.88h17.13l295.21.02c.83 0 1.58.33 2.12.88.54.54.88 1.29.88 2.12z" class="secondary" style="display:block" transform="translate(217.498 211.503)"/><path fill="#EBE6EF" fill-opacity=".5" d="M55.597-5.357C40.218-15.879 18.265-22.834.012-22.751c-20.25.092-39.258 8.155-56.274 19.41-38.129 25.221-104.8 88.466-104.8 88.466l.187 13.625s72.485-66.073 112.625-94c13.659-9.503 30.107-16.574 47.062-16.619C12.94-11.907 33.137-7.809 46.835 1.6c40.314 27.69 111.103 95.525 111.103 95.525V84.188S93.208 20.376 55.597-5.357z" class="secondary" style="mix-blend-mode:multiply;display:block" transform="matrix(1 0 0 .99423 219.002 215.001)"/><g fill="#EBE6EF" mask="url(#g)" style="display:block"><path d="m373.572 106.626-85.8 87.317c-39.317 40.013-103.055 39.908-142.24-.235l-84.898-86.973" class="secondary"/><path fill-opacity=".5" d="M41.715-18.832 18.924 4.362A26.342 26.342 0 0 1-18.86 4.3l-22.552-23.103" class="secondary" style="mix-blend-mode:multiply" transform="translate(216.532 177.52) scale(3.76457)"/></g><path fill="none" d="M-14.213 8.109a22.114 22.114 0 0 1-.275-.258l-27.887-26.687m84.754.004L14.539 7.757" class="primary" style="display:block" transform="matrix(3.7 0 0 3.7 216.843 178.318)"/><g fill="#4BB3FD" style="display:block"><path d="M58.472 105.054 190.443 237.28c14.57 14.598 38.23 14.6 52.801.003l131.954-132.185" class="tertiary"/><path fill-opacity=".5" d="m-42.379-18.836 35.315 35.383c3.899 3.906 10.23 3.907 14.129 0l35.31-35.371" class="tertiary" style="mix-blend-mode:multiply" transform="translate(216.843 175.444) scale(3.737)"/></g><g mask="url(#h)" style="display:block"><path fill="#4BB3FD" d="M77.912 105.054 209.883 237.28c14.57 14.598 38.23 14.6 52.8.003l131.955-132.185" class="tertiary"/></g><g fill="none" stroke="#121331" stroke-linecap="round" stroke-linejoin="round" stroke-width="7.511" style="display:block"><path d="m60.04 108.625 130.665 130.917c14.425 14.454 37.851 14.455 52.278.003L373.63 108.669" class="primary"/><path d="M57.802 105.91v210.84h318.344V105.939l-318.344-.03z" class="primary"/></g><g mask="url(#i)" style="display:block"><path fill="none" stroke="#121331" stroke-linecap="round" stroke-linejoin="round" stroke-width="7.511" d="M217.623 195.823c27.258.015 54.512 8.995 75.318 26.947l82.554 71.232m-317.19 1.558 83.567-72.558c20.88-18.129 48.32-27.194 75.751-27.18" class="primary"/></g><g fill="#F24C00" style="display:block"><path d="M338.887 233.382c38.033 0 68.913 30.88 68.913 68.913s-30.88 68.913-68.913 68.913-68.913-30.88-68.913-68.913 30.88-68.913 68.913-68.913z" class="quaternary"/><path d="M-24.808.527c0-36.437 28.347-66.288 64.169-68.731a69.298 69.298 0 0 0-9.81-.709c-38.033 0-68.912 30.88-68.912 68.913s30.879 68.913 68.912 68.913c1.596 0 3.174-.075 4.743-.182C.902 63.961-24.808 35.228-24.808.527z" class="quaternary" opacity=".5" style="mix-blend-mode:multiply" transform="translate(309.335 302.295)"/></g><path fill="none" stroke="#121331" stroke-linecap="round" stroke-width="2.03" d="M0-18.625c10.28 0 18.625 8.346 18.625 18.625 0 10.28-8.346 18.625-18.625 18.625-10.28 0-18.625-8.346-18.625-18.625 0-10.28 8.346-18.625 18.625-18.625z" class="primary" style="display:block" transform="matrix(3.7 0 0 3.7 338.487 302.413)"/><path fill="none" stroke="#121331" stroke-linecap="round" stroke-width="2.03" d="M34.25 14.75V33m9.125-9.125h-18.25" class="primary" style="display:block" transform="rotate(45 -25.016 451.322) scale(3.7)"/></g></g></svg>