<svg xmlns="http://www.w3.org/2000/svg"  viewBox="0 0 64 64" width="64px" height="64px"><path fill="#ced8ed" d="M47,11H17C9.268,11,3,17.268,3,25v22h58V25C61,17.268,54.732,11,47,11z"/><path fill="#c2cde7" d="M17.38,11L17.38,11C24.902,11,31,17.098,31,24.62l0,0V47l0,0H3l0,0V25.38 C3,17.438,9.438,11,17.38,11z"/><path fill="#c4939c" d="M29,53h8v11h-8V53z"/><path fill="#c2cde7" d="M35,42h22c2.209,0,4,1.791,4,4v1l0,0H31l0,0v-1C31,43.791,32.791,42,35,42z"/><path fill="#f9dd8f" d="M61,47H3c-1.105,0-2,0.895-2,2l0,0c0,1.105,0.895,2,2,2h58c1.105,0,2-0.895,2-2l0,0 C63,47.895,62.105,47,61,47z"/><path fill="#cda1a7" d="M39.76,55H26.24c-0.759,0-1.452-0.43-1.79-1.11L23,51h20l-1.45,2.89 C41.212,54.57,40.519,55,39.76,55z"/><path fill="#8d6c9f" d="M51,40c-0.552,0-1,0.448-1,1v2c0,0.552,0.448,1,1,1s1-0.448,1-1v-2C52,40.448,51.552,40,51,40z M46,40c-0.552,0-1,0.448-1,1v2c0,0.552,0.448,1,1,1s1-0.448,1-1v-2C47,40.448,46.552,40,46,40z M56,40c-0.552,0-1,0.448-1,1v2 c0,0.552,0.448,1,1,1s1-0.448,1-1v-2C57,40.448,56.552,40,56,40z M41,40c-0.552,0-1,0.448-1,1v2c0,0.552,0.448,1,1,1s1-0.448,1-1 v-2C42,40.448,41.552,40,41,40z M36,40c-0.552,0-1,0.448-1,1v2c0,0.552,0.448,1,1,1s1-0.448,1-1v-2C37,40.448,36.552,40,36,40z M21,24h-8c-0.552,0-1,0.448-1,1s0.448,1,1,1h8c0.552,0,1-0.448,1-1S21.552,24,21,24z"/><path fill="#8d6c9f" d="M62,46.18V46h-2H32h-2H4H2v0.18c-1.557,0.565-2.362,2.286-1.797,3.843 C0.631,51.202,1.746,51.99,3,52h19.38l1.17,2.34c0.509,1.019,1.551,1.662,2.69,1.66H28v7c0,0.552,0.448,1,1,1s1-0.448,1-1v-7h6v7 c0,0.552,0.448,1,1,1s1-0.448,1-1v-7h1.76c1.135-0.002,2.173-0.644,2.68-1.66L43.62,52H61c1.657-0.013,2.989-1.366,2.977-3.023 C63.967,47.723,63.179,46.608,62,46.18z M40.66,53.45c-0.169,0.336-0.513,0.549-0.89,0.55H26.24 c-0.377-0.001-0.721-0.214-0.89-0.55L24.62,52h16.76L40.66,53.45z M61,50H3c-0.552,0-1-0.448-1-1s0.448-1,1-1h58 c0.552,0,1,0.448,1,1S61.552,50,61,50z"/><path fill="#8d6c9f" d="M31,48H3c-0.552,0-1-0.447-1-1V25c0-8.271,6.729-15,15-15s15,6.729,15,15v22 C32,47.553,31.552,48,31,48z M4,46h26V25c0-7.168-5.832-13-13-13S4,17.832,4,25V46z"/><path fill="#8d6c9f" d="M61,48H17v-2h43V24.998C60,17.831,54.169,12,47.002,12H17v-2h30.002 C55.271,10,62,16.728,62,24.998V47C62,47.553,61.553,48,61,48z"/><g><path fill="#ed7899" d="M62,35c0.552,0,1-0.448,1-1v-8c0-0.552-0.448-1-1-1H40c-1.105,0-2,0.895-2,2l0,0 c0,1.105,0.895,2,2,2h17c0.483-0.01,0.904,0.327,1,0.8l0.88,4.39c0.096,0.473,0.517,0.81,1,0.8L62,35z"/><path fill="#f9dd8f" d="M36.878,24.884c-1.172,1.172-1.172,3.071,0,4.243c1.172,1.172,3.071,1.172,4.243,0 c1.172-1.172,1.172-3.071,0-4.243S38.049,23.712,36.878,24.884z"/><path fill="#8d6c9f" d="M39,31c-2.206,0-4-1.794-4-4s1.794-4,4-4s4,1.794,4,4S41.206,31,39,31z M39,25 c-1.103,0-2,0.897-2,2s0.897,2,2,2s2-0.897,2-2S40.103,25,39,25z"/><path fill="#8d6c9f" d="M61.916,36h-2.063c-0.965,0-1.798-0.654-2.025-1.592l-1.045-4.295L40.993,30l0.014-2l15.971,0.114 c0.813,0.006,1.514,0.561,1.705,1.35l1.088,4.472C59.78,33.975,59.813,34,59.853,34h2.063C61.962,34,62,33.962,62,33.915v-7.687 c0-0.129-0.105-0.235-0.234-0.235l-20.65-0.11l0.01-2l20.651,0.11C63.003,24,64,25.003,64,26.229v7.687 C64,35.065,63.065,36,61.916,36z"/></g></svg>