<svg xmlns="http://www.w3.org/2000/svg" width="430" height="430" style="width:100%;height:100%;transform:translate3d(0,0,0);content-visibility:visible" viewBox="0 0 430 430"><defs><clipPath id="a"><path d="M0 0h430v430H0z"/></clipPath><clipPath id="b"><path d="M0 0h430v430H0z"/></clipPath></defs><g clip-path="url(#a)"><g clip-path="url(#b)" style="display:block"><g fill="#2CA58D" style="display:block"><path d="M355.208 208.165c-15.04 21.44-34.09 35.8-49.24 38.69-.5-7.97-.76-15.95-.77-23.93v-.01c3.02-11.7 9.07-24.73 17.89-37.29 14.716-20.963 33.259-35.159 48.23-38.495a3.032 3.032 0 0 1 3.683 2.584c1.958 15.216-5.077 37.479-19.793 58.451z" class="secondary"/><path d="M34.949-38.68C22.279-29.86 9.379-16.94-1.811-.99c-11.31 16.1-19.1 32.8-23.05 47.83-3.26 1.46-6.42 2.48-9.43 3.06-.5-7.97-.76-15.95-.77-23.93v-.01c3.02-11.7 9.07-24.73 17.89-37.29 14.715-20.962 33.258-35.159 48.229-38.495 1.75-.39 3.452.778 3.682 2.557.344 2.663.409 5.542.209 8.588z" class="secondary" opacity=".5" style="mix-blend-mode:multiply" transform="translate(340.259 196.955)"/></g><path fill="none" stroke="#121331" stroke-linecap="round" stroke-linejoin="round" stroke-width="7" d="M-34.288 50.135C-19.139 47.242-.087 32.884 14.958 11.44c15.753-22.453 22.703-46.394 19.238-61.575C18.745-48.231-1.409-33.55-17.162-11.097-25.996 1.482-32.051 14.53-35.068 26.246" class="primary" style="display:block" transform="translate(339.909 196.736)"/><g fill="#2CA58D" style="display:block"><path d="M126.028 323.584c-15.43-1.96-35.53-16.62-51.24-39.02-14.706-20.971-21.739-43.232-19.791-58.448a3.03 3.03 0 0 1 3.683-2.585c14.979 3.343 33.522 17.531 48.228 38.493 9.39 13.38 15.65 27.28 18.45 39.56v.02c.44 7.32.66 14.65.67 21.98z" class="secondary"/><path d="M35.675 50.064c-15.43-1.96-35.53-16.62-51.24-39.02C-30.27-9.925-37.304-32.184-35.357-47.4a3.027 3.027 0 0 1 3.67-2.59c4.679 1.045 9.706 3.142 14.852 6.184-.54 15 6.5 35.48 20.08 54.85 9.81 13.99 21.33 24.96 32.35 31.7.05 2.44.08 4.88.08 7.32z" class="secondary" opacity=".5" style="mix-blend-mode:multiply" transform="translate(90.353 273.52)"/></g><path fill="none" stroke="#121331" stroke-linecap="round" stroke-linejoin="round" stroke-width="7" d="M35.677 50.297C20.247 48.341.144 33.68-15.567 11.279-31.32-11.174-38.27-35.116-34.805-50.297-19.344-48.393.8-33.711 16.553-11.258c9.406 13.401 15.67 27.323 18.458 39.611" class="primary" style="display:block" transform="translate(90.009 273.299)"/><g fill="#2CA58D" style="display:block"><path d="M306.2 151.291c.043.5.066.99.068 1.48.047 9.77-7.853 17.918-17.813 17.966l-28.11.137c-10.46.05-18.733-8.85-17.934-19.273a386.393 386.393 0 0 0-.306-63.09l-1.393-16.11a3 3 0 0 1 2.974-3.258l60.448-.293a3 3 0 0 1 3.005 3.232l-1.244 16.12a388.59 388.59 0 0 0 .306 63.09z" class="secondary"/><path d="M306.762 254.58c.047 9.78-7.853 17.918-17.813 17.966l-28.11.137c-10.46.05-18.733-8.84-17.934-19.274a386.576 386.576 0 0 0-.306-63.089c-.042-.5-.064-.99-.067-1.48-.047-9.78 7.853-17.918 17.813-17.966l28.11-.137c10.46-.05 18.733 8.84 17.934 19.274a390.857 390.857 0 0 0-1.127 31.545l.002.54a389.996 389.996 0 0 0 1.43 31.004c.043.5.065.99.068 1.48z" class="secondary"/><path d="M243.4 355.218a386.338 386.338 0 0 0-.307-63.09 18.958 18.958 0 0 1-.067-1.479c-.047-9.78 7.853-17.918 17.813-17.966l28.11-.137c10.46-.05 18.733 8.84 17.934 19.273a390.67 390.67 0 0 0-1.127 31.546c.05 10.53.532 21.048 1.433 31.544l1.4 16.107a3 3 0 0 1-2.973 3.26l-60.448.294a3 3 0 0 1-3.005-3.23l1.236-16.122z" class="secondary"/><path d="M15.518 50.9c6.66.26 12.33 4.15 15.19 9.68-1.37-.34-2.8-.52-4.28-.52h-28.11c-9.96 0-17.9 8.1-17.9 17.88 0 .49.02.98.06 1.48 1.72 20.99 1.72 42.09 0 63.09l-.83 10.19h-9.115a3 3 0 0 1-2.991-3.244l1.316-16.116c1.72-21 1.72-42.1 0-63.09-.04-.5-.06-.99-.06-1.48 0-9.56 7.58-17.51 17.22-17.87-10.11-.39-17.95-9.15-17.12-19.34a386.577 386.577 0 0 0 0-63.09c-.04-.5-.06-.99-.06-1.48 0-9.78 7.94-17.88 17.9-17.88-10.46 0-18.69-8.94-17.84-19.36a386.394 386.394 0 0 0 0-63.09l-1.316-16.116a3 3 0 0 1 2.99-3.244h9.116l.83 10.19a386.148 386.148 0 0 1 0 63.09c-.85 10.42 7.38 19.36 17.84 19.36h28.11c1.48 0 2.91-.18 4.28-.52-2.96 5.72-8.94 9.69-15.9 9.69 8.88 0 16.16 6.44 17.62 14.77-2.62-4.78-7.7-8.05-13.6-8.05h-24.4c-8.64 0-15.53 7.03-15.53 15.52 0 .43.01.85.05 1.29.75 9.11 1.12 18.24 1.12 27.37 0 9.13-.37 18.27-1.12 27.38-.74 9.06 6.4 16.81 15.48 16.81h24.4c5.9 0 10.98-3.27 13.6-8.05-1.42 8.12-8.38 14.44-16.95 14.75z" class="secondary" opacity=".5" style="mix-blend-mode:multiply" transform="rotate(-.278 45828.6 -56336.774)"/></g><path fill="none" stroke="#121331" stroke-linecap="round" stroke-linejoin="round" stroke-width="7" d="M14.054-152.717h-28.108c-10.462 0-18.694-8.932-17.841-19.359v-.001a387.035 387.035 0 0 0 0-63.092l-1.583-19.359h66.956l-1.583 19.359a387.047 387.047 0 0 0 0 63.093s0 0 0 0c.853 10.427-7.38 19.359-17.841 19.359zm0 101.811h-28.108c-10.462 0-18.694-8.932-17.841-19.359 0 0 0 0 0 0a387.035 387.035 0 0 0 0-63.092s0 0 0 0c-.853-10.427 7.379-19.36 17.841-19.36h28.108c10.462 0 18.694 8.933 17.841 19.36 0 0 0 0 0 0a387.035 387.035 0 0 0 0 63.092s0 0 0 0c.853 10.427-7.379 19.359-17.841 19.359zM33.478 50.906h-66.956l1.583-19.36a387.035 387.035 0 0 0 0-63.092s0 0 0 0c-.853-10.427 7.379-19.36 17.841-19.36h28.108c10.462 0 18.694 8.933 17.841 19.36 0 0 0 0 0 0a387.035 387.035 0 0 0 0 63.092l1.583 19.36z" class="primary" style="display:block" transform="translate(274.241 324.214)"/><g fill="#2CA58D" style="display:block"><path d="M190.609 74.09h.01l-.452 79.48a17.594 17.594 0 0 1-1.895 7.849c-2.933 5.783-8.946 9.76-15.826 9.76l-31.63-.18c-.38-.002-.76-.014-1.129-.046h-.06c-9.186-.673-16.472-8.425-16.42-17.764l.344-60.31c-.607-7.643 3.493-16.42 11.005-23.727 3.027-2.953 6.612-5.663 10.666-7.97 17.356-9.891 36.73-8.59 43.274 2.897 1.723 3.01 2.383 6.433 2.113 10.012zm-66.033 226.969c0-.01 0-.02-.01-.03m63.492-45.819c-.055 9.78-8.041 17.824-18.001 17.767l-28.11-.16c-10.46-.06-18.638-9.036-17.73-19.461a386.576 386.576 0 0 0 .36-63.089c-.037-.5-.055-.99-.052-1.48.056-9.78 8.042-17.835 18.002-17.778l28.11.16c10.46.06 18.648 9.036 17.729 19.46a386.32 386.32 0 0 0-1.46 31.533c-.06 10.52.3 21.052 1.1 31.557.038.5.055 1 .052 1.49z" class="secondary"/><path d="M123.639 355.164a383.642 383.642 0 0 0 1.473-32.152 374.85 374.85 0 0 0-.545-21.983l.005-1.007c.014-2.31-.185-4.612-.47-6.905a19.447 19.447 0 0 1-.156-2.522c.056-9.78 8.042-17.835 18.001-17.778l28.11.16c10.46.06 18.649 9.036 17.73 19.461a386.138 386.138 0 0 0-1.46 31.532c-.06 10.53.3 21.053 1.1 31.557l1.232 16.122a3 3 0 0 1-3.009 3.228l-60.447-.343a3 3 0 0 1-2.971-3.261l1.407-16.109z" class="secondary"/><path d="M-18.907-105.905c.01.78.01 1.56.01 2.34 0 10.53-.43 21.05-1.29 31.55-.85 10.42 7.38 19.36 17.84 19.36h28.11c1.26 0 4.19-.36 5.88-.68-2.9 5.8-8.89 9.81-15.77 9.85h-1.73c8.88 0 16.16 6.44 17.62 14.77-2.62-4.78-7.7-8.05-13.6-8.05h-24.4c-8.64 0-15.53 7.03-15.53 15.52 0 .43.01.85.05 1.29.75 9.11 1.12 18.24 1.12 27.37 0 9.13-.37 18.27-1.12 27.38-.74 9.06 6.4 16.81 15.48 16.81h24.4c5.9 0 10.98-3.27 13.6-8.05-1.42 8.12-8.38 14.44-16.95 14.75 6.66.26 12.33 4.15 15.19 9.68-1.37-.34-2.8-.52-4.28-.52h-28.11c-9.96 0-17.9 8.1-17.9 17.88 0 .49.02.98.06 1.48 1.72 20.99 1.72 42.09 0 63.09l-.83 10.19h-9.115a3 3 0 0 1-2.99-3.244l1.315-16.116c1.72-21 1.72-42.1 0-63.09-.04-.5-.06-.99-.06-1.48 0-9.56 7.58-17.51 17.22-17.87-10.11-.39-17.95-9.15-17.12-19.34a386.577 386.577 0 0 0 0-63.09c-.04-.5-.06-.99-.06-1.48 0-9.78 7.94-17.88 17.9-17.88-.98 0-1.96-.01-2.92-.04h-.06c-9.19-.62-16.52-8.33-16.52-17.67v-60.31c-.07-.79-.08-1.6-.05-2.41 0-.16.01-.32.02-.48 0-.03 0-.07.01-.1.02-.41.06-.81.12-1.23 0-.05.01-.1.02-.15.02-.19.05-.39.08-.58.04-.21.07-.42.11-.63.05-.29.12-.59.18-.89l.03-.12c.08-.33.16-.67.26-1.01.09-.33.18-.66.29-.99 0-.01 0-.02.01-.03.09-.29.19-.58.29-.88.15-.42.31-.84.49-1.26.12-.31.25-.61.38-.91.28-.63.59-1.26.91-1.89.03-.05.06-.11.09-.16.17-.33.36-.67.55-1 .56-.98 1.18-1.96 1.85-2.93.29-.41.59-.81.9-1.22.2-.27.42-.55.64-.82.03-.05.07-.09.1-.13.23-.29.46-.56.69-.84.27-.32.55-.64.83-.96.26-.29.53-.58.8-.87.24-.26.49-.52.75-.77.17-.18.34-.36.52-.53 3.01-2.97 6.58-5.7 10.62-8.03 17.3-9.99 36.68-8.8 43.29 2.65 1.74 3 2.42 6.42 2.17 10-.69 10.06-8.75 21.45-21.51 28.82-10.66 6.16-22.12 8.07-30.88 5.95z" class="secondary" opacity=".5" style="mix-blend-mode:multiply" transform="rotate(.326 -37633.658 27582.305)"/></g><path fill="none" stroke="#121331" stroke-linecap="round" stroke-linejoin="round" stroke-width="7" d="M33.492-8.087v79.482c0 9.74-7.969 17.709-17.709 17.709h-31.537c-9.74 0-17.709-7.969-17.709-17.709V11.089m47.531 179.824h-28.109c-10.462 0-18.694-8.932-17.841-19.359 0 0 0 0 0 0a387.035 387.035 0 0 0 0-63.092s0 0 0 0c-.853-10.427 7.379-19.36 17.841-19.36h28.109c10.461 0 18.694 8.932 17.841 19.359v.001a387.035 387.035 0 0 0 0 63.092s0 0 0 0c.853 10.427-7.38 19.359-17.841 19.359zm19.424 101.812h-66.957l1.583-19.36a387.035 387.035 0 0 0 0-63.092s0 0 0 0c-.853-10.427 7.379-19.359 17.841-19.359h28.109c10.462 0 18.694 8.932 17.841 19.359 0 0 0 0 0 0a387.035 387.035 0 0 0 0 63.092l1.583 19.36zM-11.973-20.738c-17.297 9.986-25.959 27.367-19.346 38.82 6.613 11.453 25.995 12.642 43.292 2.656 17.297-9.986 25.959-27.367 19.346-38.82-6.613-11.453-25.995-12.642-43.292-2.656z" class="primary" style="display:block" transform="translate(156.278 82.394)"/></g></g></svg>