<svg xmlns="http://www.w3.org/2000/svg" width="430" height="430" style="width:100%;height:100%;transform:translate3d(0,0,0);content-visibility:visible" viewBox="0 0 430 430"><defs><clipPath id="h"><path d="M0 0h430v430H0z"/></clipPath><clipPath id="i"><path d="M0 0h430v430H0z"/></clipPath><clipPath id="g"><path d="M0 0h430v430H0z"/></clipPath><clipPath id="k"><path d="M0 0h430v430H0z"/></clipPath><filter id="a" width="100%" height="100%" x="0%" y="0%" filterUnits="objectBoundingBox"><feComponentTransfer in="SourceGraphic"><feFuncA tableValues="1.0 0.0" type="table"/></feComponentTransfer></filter><filter id="c" width="100%" height="100%" x="0%" y="0%" filterUnits="objectBoundingBox"><feComponentTransfer in="SourceGraphic"><feFuncA tableValues="1.0 0.0" type="table"/></feComponentTransfer></filter><filter id="e" width="100%" height="100%" x="0%" y="0%" filterUnits="objectBoundingBox"><feComponentTransfer in="SourceGraphic"><feFuncA tableValues="1.0 0.0" type="table"/></feComponentTransfer></filter><mask id="m" mask-type="alpha"><g filter="url(#a)"><path fill="#fff" d="M0 0h430v430H0z" opacity="0"/><use xmlns:ns1="http://www.w3.org/1999/xlink" ns1:href="#b"/></g></mask><mask id="l" mask-type="alpha"><g filter="url(#c)"><path fill="#fff" d="M0 0h430v430H0z" opacity="0"/><use xmlns:ns2="http://www.w3.org/1999/xlink" ns2:href="#d"/></g></mask><mask id="j" mask-type="alpha"><g filter="url(#e)"><path fill="#fff" d="M0 0h430v430H0z" opacity="0"/><use xmlns:ns3="http://www.w3.org/1999/xlink" ns3:href="#f"/></g></mask><g id="f" clip-path="url(#g)" style="display:block"><g style="display:block"><path fill-opacity="0" stroke="#000" stroke-linecap="round" stroke-linejoin="round" stroke-width="0" d="M331.387 191.204c12.508 7.124 18.27 22.5 12.952 36.344a29.542 29.542 0 0 1-17.228 17.076l.001.002c.729 4.689.269 9.624-1.561 14.378-4.797 12.463-17.455 19.567-30.127 17.837l.005.001c2.878 6.582 3.265 14.253.481 21.485-5.597 14.553-21.936 21.801-36.489 16.204-8.849-3.413-14.998-10.794-17.2-19.334-6.369 9.934-18.651 15.264-30.949 12.048-13.581-3.552-22.605-16.896-20.828-30.821.885-6.934 4.167-12.887 8.87-17.219-11.487-5.371-18.293-18.053-15.711-31.06a28.1 28.1 0 0 1 3.924-9.746c2.427-3.777 1.887-8.682-1.056-12.072-8.974-10.336-13.244-24.557-10.373-39.017 3.929-19.788 20.044-34.057 38.997-36.547 2.519-.331 4.579-2.069 5.474-4.447 4.774-12.686 18.17-20.432 31.911-17.704a27.909 27.909 0 0 1 8.264 3.042c5.307-11.648 18.073-18.554 31.172-15.954 15.295 3.037 25.239 17.893 22.202 33.188l-.018.09c-.587 2.891 2.126 5.294 4.957 4.465 4.985-1.46 10.438-1.628 15.898-.189 13.893 3.66 23.282 17.107 21.878 31.405-1.4 14.248-12.356 24.754-25.446 26.545z"/><path fill="red" d="M331.387 191.204c12.508 7.124 18.27 22.5 12.952 36.344a29.542 29.542 0 0 1-17.228 17.076l.001.002c.729 4.689.269 9.624-1.561 14.378-4.797 12.463-17.455 19.567-30.127 17.837l.005.001c2.878 6.582 3.265 14.253.481 21.485-5.597 14.553-21.936 21.801-36.489 16.204-8.849-3.413-14.998-10.794-17.2-19.334-6.369 9.934-18.651 15.264-30.949 12.048-13.581-3.552-22.605-16.896-20.828-30.821.885-6.934 4.167-12.887 8.87-17.219-11.487-5.371-18.293-18.053-15.711-31.06a28.1 28.1 0 0 1 3.924-9.746c2.427-3.777 1.887-8.682-1.056-12.072-8.974-10.336-13.244-24.557-10.373-39.017 3.929-19.788 20.044-34.057 38.997-36.547 2.519-.331 4.579-2.069 5.474-4.447 4.774-12.686 18.17-20.432 31.911-17.704a27.909 27.909 0 0 1 8.264 3.042c5.307-11.648 18.073-18.554 31.172-15.954 15.295 3.037 25.239 17.893 22.202 33.188l-.018.09c-.587 2.891 2.126 5.294 4.957 4.465 4.985-1.46 10.438-1.628 15.898-.189 13.893 3.66 23.282 17.107 21.878 31.405-1.4 14.248-12.356 24.754-25.446 26.545z"/><path fill-opacity="0" stroke="#000" stroke-linecap="round" stroke-linejoin="round" stroke-width="0" d="M279.885 151.302s-37.657 48.337-38.288 146.391"/><path fill="red" d="M279.885 151.302s-37.657 48.337-38.288 146.391"/><path fill-opacity="0" stroke="#000" stroke-linecap="round" stroke-linejoin="round" stroke-width="0" d="M289.296 180.997c-22.025 2.491-31.066 14.457-31.066 14.457"/><path fill="red" d="M289.296 180.997c-22.025 2.491-31.066 14.457-31.066 14.457"/><path fill-opacity="0" stroke="#000" stroke-linecap="round" stroke-linejoin="round" stroke-width="0" d="M297.773 215.183c-36.517 7.198-52.502 32.989-52.502 32.989"/><path fill="red" d="M297.773 215.183c-36.517 7.198-52.502 32.989-52.502 32.989"/><path fill-opacity="0" stroke="#000" stroke-linecap="round" stroke-linejoin="round" stroke-width="0" d="M239.793 162.284c16.506 13.098 18.437 33.17 18.437 33.17"/><path fill="red" d="M239.793 162.284c16.506 13.098 18.437 33.17 18.437 33.17"/><path fill-opacity="0" stroke="#000" stroke-linecap="round" stroke-linejoin="round" stroke-width="0" d="M218.443 192.509c19.238 14.999 26.828 55.663 26.828 55.663"/><path fill="red" d="M218.443 192.509c19.238 14.999 26.828 55.663 26.828 55.663"/></g><g style="display:block"><path fill-opacity="0" stroke="#000" stroke-linecap="round" stroke-linejoin="round" stroke-width="0" d="m154.141 158.991 12.976-59.928c.661-3.053-2.98-5.162-5.299-3.069l-18.883 17.041-25.012-16.419-16.635 24.639-23.942-8.59c-2.941-1.055-5.508 2.279-3.736 4.852l34.771 50.505m61.734 193.16c9.637-1.902 16.092-11.023 14.682-20.744l-23.932-164.942c-2.211-15.24-16.737-25.521-31.845-22.539 0 0 0 0 0 0-15.108 2.982-24.639 18.009-20.894 32.947l40.527 161.667c2.388 9.528 11.825 15.513 21.462 13.611 0 0 0 0 0 0zm-59.913-167.018 17.245-3.404m27.241 46.517 14.581-2.878m-35.822 50.714 13.447-2.654"/><path fill="red" d="m154.141 158.991 12.976-59.928c.661-3.053-2.98-5.162-5.299-3.069l-18.883 17.041-25.012-16.419-16.635 24.639-23.942-8.59c-2.941-1.055-5.508 2.279-3.736 4.852l34.771 50.505m61.734 193.16c9.637-1.902 16.092-11.023 14.682-20.744l-23.932-164.942c-2.211-15.24-16.737-25.521-31.845-22.539-15.108 2.982-24.639 18.009-20.894 32.947l40.527 161.667c2.388 9.528 11.825 15.513 21.462 13.611zm-59.913-167.018 17.245-3.404m27.241 46.517 14.581-2.878m-35.822 50.714 13.447-2.654"/></g></g><g id="b" style="display:block"><path fill-opacity="0" stroke="#121331" stroke-linecap="round" stroke-linejoin="round" stroke-width="7" d="m154.141 158.991 12.976-59.928c.661-3.053-2.98-5.162-5.299-3.069l-18.883 17.041-25.012-16.419-16.635 24.639-23.942-8.59c-2.941-1.055-5.508 2.279-3.736 4.852l34.771 50.505m61.734 193.16s0 0 0 0c-9.637 1.902-19.074-4.083-21.462-13.611l-40.527-161.667c-3.745-14.938 5.786-29.965 20.894-32.947 0 0 0 0 0 0 15.108-2.982 29.634 7.299 31.845 22.539l23.932 164.942c1.41 9.721-5.045 18.842-14.682 20.744zm-59.913-167.018 17.245-3.404m27.241 46.517 14.581-2.878m-35.822 50.714 13.447-2.654" class="primary"/><path fill="red" d="m154.141 158.991 12.976-59.928c.661-3.053-2.98-5.162-5.299-3.069l-18.883 17.041-25.012-16.419-16.635 24.639-23.942-8.59c-2.941-1.055-5.508 2.279-3.736 4.852l34.771 50.505m61.734 193.16c-9.637 1.902-19.074-4.083-21.462-13.611l-40.527-161.667c-3.745-14.938 5.786-29.965 20.894-32.947 15.108-2.982 29.634 7.299 31.845 22.539l23.932 164.942c1.41 9.721-5.045 18.842-14.682 20.744zm-59.913-167.018 17.245-3.404m27.241 46.517 14.581-2.878m-35.822 50.714 13.447-2.654"/></g><path id="d" fill="red" d="m125.032 40.03-2.282.031s4.125 41.939-12.109 81.114c-11.179 26.977-30.578 38.948-30.578 38.948H-80.063s-19.312-12.498-30.76-39.464c-17.136-40.365-11.739-80.599-11.739-80.599l-2.47-.03a8.84 8.84 0 0 1-8.84-8.84v-9.007a8.84 8.84 0 0 1 8.84-8.84h250.064a8.84 8.84 0 0 1 8.84 8.84v9.007a8.84 8.84 0 0 1-8.84 8.84z" style="display:block" transform="translate(215 215)"/></defs><g clip-path="url(#h)"><g clip-path="url(#i)" style="display:block"><path fill="#B26836" d="M80.06 60.045H-80.06c-50.8-34.79-42.56-120.09-42.56-120.09h245.24s8.24 85.3-42.56 120.09z" class="secondary" style="display:block" transform="translate(215 315.075)"/><g opacity=".5" style="mix-blend-mode:multiply;display:block"><path fill="#B26836" d="M-13.677-60.045h-14.712s-8.24 85.3 42.56 120.09h14.712c-50.8-34.79-42.56-120.09-42.56-120.09z" class="secondary" opacity="1" style="mix-blend-mode:multiply" transform="translate(120.769 315.075)"/></g><path fill="#B26836" d="M133.87-4.505v9.01c0 4.88-3.96 8.84-8.84 8.84h-250.06c-4.88 0-8.84-3.96-8.84-8.84v-9.01c0-4.88 3.96-8.84 8.84-8.84h250.06c1.3 0 2.54.28 3.65.79a8.84 8.84 0 0 1 5.19 8.05z" class="secondary" style="display:block" transform="translate(215.001 241.685)"/><g mask="url(#j)" style="display:block"><path fill="none" stroke="#121331" stroke-linecap="round" stroke-linejoin="round" stroke-width="7" d="M92.201 228.34c4.51-96.94 57.77-173.46 122.8-173.46s118.29 76.52 122.8 173.46" class="primary"/></g><g clip-path="url(#k)" mask="url(#l)" style="display:block"><g mask="url(#m)" style="display:block"><path fill="#2CA58D" d="m283.463 127.307-77.214 41.546 19.596 125.96 46.357 5.57 28.467-63.495 14.474-34.286-31.68-75.295z" class="tertiary"/><path fill="#2CA58D" d="M331.387 191.204c12.508 7.124 18.27 22.5 12.952 36.344a29.542 29.542 0 0 1-17.228 17.076l.001.002c.729 4.689.269 9.624-1.561 14.378-4.797 12.463-17.455 19.567-30.127 17.837l.005.001c2.878 6.582 3.265 14.253.481 21.485-5.597 14.553-21.936 21.801-36.489 16.204-8.849-3.413-14.998-10.794-17.2-19.334-6.369 9.934-18.651 15.264-30.949 12.048-13.581-3.552-22.605-16.896-20.828-30.821.885-6.934 4.167-12.887 8.87-17.219-11.487-5.371-18.293-18.053-15.711-31.06a28.1 28.1 0 0 1 3.924-9.746c2.427-3.777 1.887-8.682-1.056-12.072-8.974-10.336-13.244-24.557-10.373-39.017 3.929-19.788 20.044-34.057 38.997-36.547 2.519-.331 4.579-2.069 5.474-4.447 4.774-12.686 18.17-20.432 31.911-17.704a27.909 27.909 0 0 1 8.264 3.042c5.307-11.648 18.073-18.554 31.172-15.954 15.295 3.037 25.239 17.893 22.202 33.188l-.018.09c-.587 2.891 2.126 5.294 4.957 4.465 4.985-1.46 10.438-1.628 15.898-.189 13.893 3.66 23.282 17.107 21.878 31.405-1.4 14.248-12.356 24.754-25.446 26.545zm-51.502-39.902s-37.657 48.337-38.288 146.391m47.699-116.696c-22.025 2.491-31.066 14.457-31.066 14.457m39.543 19.729c-36.517 7.198-52.502 32.989-52.502 32.989m-5.478-85.888c16.506 13.098 18.437 33.17 18.437 33.17m-39.787-2.945c19.238 14.999 26.828 55.663 26.828 55.663" class="tertiary"/><path fill="none" stroke="#121331" stroke-linecap="round" stroke-linejoin="round" stroke-width="7" d="M331.387 191.204c12.508 7.124 18.27 22.5 12.952 36.344a29.542 29.542 0 0 1-17.228 17.076l.001.002c.729 4.689.269 9.624-1.561 14.378-4.797 12.463-17.455 19.567-30.127 17.837l.005.001c2.878 6.582 3.265 14.253.481 21.485-5.597 14.553-21.936 21.801-36.489 16.204-8.849-3.413-14.998-10.794-17.2-19.334-6.369 9.934-18.651 15.264-30.949 12.048-13.581-3.552-22.605-16.896-20.828-30.821.885-6.934 4.167-12.887 8.87-17.219-11.487-5.371-18.293-18.053-15.711-31.06a28.1 28.1 0 0 1 3.924-9.746c2.427-3.777 1.887-8.682-1.056-12.072-8.974-10.336-13.244-24.557-10.373-39.017 3.929-19.788 20.044-34.057 38.997-36.547 2.519-.331 4.579-2.069 5.474-4.447 4.774-12.686 18.17-20.432 31.911-17.704a27.909 27.909 0 0 1 8.264 3.042c5.307-11.648 18.073-18.554 31.172-15.954 15.295 3.037 25.239 17.893 22.202 33.188l-.018.09c-.587 2.891 2.126 5.294 4.957 4.465 4.985-1.46 10.438-1.628 15.898-.189 13.893 3.66 23.282 17.107 21.878 31.405-1.4 14.248-12.356 24.754-25.446 26.545zm-51.502-39.902s-37.657 48.337-38.288 146.391m47.699-116.696c-22.025 2.491-31.066 14.457-31.066 14.457m39.543 19.729c-36.517 7.198-52.502 32.989-52.502 32.989m-5.478-85.888c16.506 13.098 18.437 33.17 18.437 33.17m-39.787-2.945c19.238 14.999 26.828 55.663 26.828 55.663" class="primary"/></g><g style="display:block"><path fill="#2CA58D" d="m154.141 158.991 12.976-59.928c.661-3.053-2.98-5.162-5.299-3.069l-18.883 17.041-25.012-16.419-16.635 24.639-23.942-8.59c-2.941-1.055-5.508 2.279-3.736 4.852l34.771 50.505" class="tertiary"/><path fill="none" stroke="#121331" stroke-linecap="round" stroke-linejoin="round" stroke-width="7" d="m154.141 158.991 12.976-59.928c.661-3.053-2.98-5.162-5.299-3.069l-18.883 17.041-25.012-16.419-16.635 24.639-23.942-8.59c-2.941-1.055-5.508 2.279-3.736 4.852l34.771 50.505" class="primary"/><path fill="#F24C00" d="M170.115 361.182c-9.637 1.902-19.074-4.083-21.462-13.611l-40.527-161.667c-3.745-14.938 5.786-29.965 20.894-32.947 15.108-2.982 29.634 7.299 31.845 22.539l23.932 164.942c1.41 9.721-5.045 18.842-14.682 20.744zm-59.913-167.018 17.245-3.404m27.241 46.517 14.581-2.878m-35.822 50.714 13.447-2.654" class="quaternary"/><path fill="none" stroke="#121331" stroke-linecap="round" stroke-linejoin="round" stroke-width="7" d="M170.115 361.182s0 0 0 0c-9.637 1.902-19.074-4.083-21.462-13.611l-40.527-161.667c-3.745-14.938 5.786-29.965 20.894-32.947 0 0 0 0 0 0 15.108-2.982 29.634 7.299 31.845 22.539l23.932 164.942c1.41 9.721-5.045 18.842-14.682 20.744zm-59.913-167.018 17.245-3.404m27.241 46.517 14.581-2.878m-35.822 50.714 13.447-2.654" class="primary"/></g></g><path fill="none" stroke="#121331" stroke-linecap="round" stroke-linejoin="round" stroke-width="7" d="M122.615 40.03s8.247 85.296-42.555 120.089H-80.06c-50.802-34.793-42.555-120.089-42.555-120.089m47.369 0s-5.061 85.296 26.115 120.089M75.246 40.03s5.061 85.296-26.115 120.089M-26.579 40.03s-1.787 85.296 9.225 120.089M26.579 40.03s1.787 85.296-9.225 120.089M125.032 40.03h-250.064a8.84 8.84 0 0 1-8.84-8.84v-9.007a8.84 8.84 0 0 1 8.84-8.84h250.064a8.84 8.84 0 0 1 8.84 8.84v9.007a8.84 8.84 0 0 1-8.84 8.84z" class="primary" style="display:block" transform="translate(215 215)"/></g></g></svg>